<svg xmlns="http://www.w3.org/2000/svg" xmlns:xlink="http://www.w3.org/1999/xlink" width="400" zoomAndPan="magnify" viewBox="0 0 300 299.999988" height="400" preserveAspectRatio="xMidYMid meet" version="1.0"><defs><g/></defs><g fill="#ffffff" fill-opacity="1"><g transform="translate(105.151382, 59.258797)"><g><path d="M 34.53125 -43.8125 C 35.0625 -43.664062 35.21875 -43.359375 35 -42.890625 C 31.4375 -36.929688 28.296875 -30.757812 25.578125 -24.375 C 22.859375 -18 20.375 -11.515625 18.125 -4.921875 C 16.65625 -0.597656 15.285156 3.753906 14.015625 8.140625 C 13.703125 9.191406 13.390625 10.253906 13.078125 11.328125 C 12.878906 11.992188 12.664062 12.644531 12.4375 13.28125 C 12.375 13.519531 12.300781 13.75 12.21875 13.96875 C 11.925781 14.800781 11.335938 15.164062 10.453125 15.0625 C 9.753906 15.007812 9.28125 14.675781 9.03125 14.0625 C 8.757812 13.363281 8.5625 12.660156 8.4375 11.953125 C 7.945312 9.390625 7.492188 6.816406 7.078125 4.234375 C 6.046875 -2.347656 5.03125 -8.925781 4.03125 -15.5 C 3.71875 -17.632812 3.414062 -19.753906 3.125 -21.859375 C 2.800781 -24.109375 2.472656 -26.363281 2.140625 -28.625 C 1.847656 -30.414062 1.546875 -32.203125 1.234375 -33.984375 C 1.097656 -34.835938 0.953125 -35.675781 0.796875 -36.5 C 0.765625 -36.664062 0.738281 -36.832031 0.71875 -37 C 0.71875 -37.050781 0.703125 -37.117188 0.671875 -37.203125 C 0.671875 -37.203125 0.664062 -37.203125 0.65625 -37.203125 C 0.632812 -37.359375 0.625 -37.503906 0.625 -37.640625 C 0.582031 -37.972656 0.546875 -38.300781 0.515625 -38.625 C 0.546875 -39.039062 0.769531 -39.273438 1.1875 -39.328125 C 2.070312 -39.441406 2.609375 -39.054688 2.796875 -38.171875 C 2.796875 -38.148438 2.796875 -38.128906 2.796875 -38.109375 C 3.203125 -36.347656 3.5625 -34.59375 3.875 -32.84375 C 4.414062 -29.425781 4.941406 -26.019531 5.453125 -22.625 C 5.472656 -22.507812 5.5 -22.390625 5.53125 -22.265625 C 6.019531 -18.953125 6.507812 -15.648438 7 -12.359375 C 7.226562 -10.742188 7.46875 -9.132812 7.71875 -7.53125 C 7.8125 -6.945312 7.894531 -6.367188 7.96875 -5.796875 C 8.238281 -4.097656 8.492188 -2.398438 8.734375 -0.703125 C 9.148438 1.878906 9.566406 4.472656 9.984375 7.078125 C 10.109375 7.890625 10.234375 8.695312 10.359375 9.5 C 10.378906 9.5625 10.398438 9.625 10.421875 9.6875 C 10.421875 9.75 10.429688 9.8125 10.453125 9.875 C 10.472656 10.039062 10.554688 10.113281 10.703125 10.09375 C 10.765625 10.070312 10.820312 10.050781 10.875 10.03125 C 10.925781 10.007812 10.960938 9.976562 10.984375 9.9375 C 11.171875 9.375 11.34375 8.816406 11.5 8.265625 C 14.5 -2.265625 18.101562 -12.550781 22.3125 -22.59375 C 23.75 -26.050781 25.328125 -29.429688 27.046875 -32.734375 C 28.765625 -36.046875 30.597656 -39.304688 32.546875 -42.515625 C 32.703125 -42.804688 32.882812 -43.085938 33.09375 -43.359375 C 33.46875 -43.785156 33.945312 -43.9375 34.53125 -43.8125 Z M 34.53125 -43.8125 "/></g></g></g><g fill="#ffffff" fill-opacity="1"><g transform="translate(129.462499, 59.258797)"><g><path d="M 10.828125 -7.71875 C 10.972656 -7.851562 11.046875 -7.675781 11.046875 -7.1875 C 11.054688 -6.707031 10.617188 -6.03125 9.734375 -5.15625 C 8.847656 -4.289062 7.929688 -3.882812 6.984375 -3.9375 C 6.773438 -3.957031 6.597656 -3.941406 6.453125 -3.890625 C 6.304688 -3.835938 6.179688 -3.71875 6.078125 -3.53125 C 5.972656 -3.351562 5.847656 -3.195312 5.703125 -3.0625 C 5.703125 -3.0625 5.695312 -3.050781 5.6875 -3.03125 C 5.101562 -2.40625 4.414062 -1.992188 3.625 -1.796875 C 2.84375 -1.609375 2.097656 -1.671875 1.390625 -1.984375 C 0.691406 -2.304688 0.1875 -2.914062 -0.125 -3.8125 C -0.351562 -4.613281 -0.375 -5.414062 -0.1875 -6.21875 C -0.0195312 -6.925781 0.238281 -7.585938 0.59375 -8.203125 C 1.019531 -9.035156 1.578125 -9.617188 2.265625 -9.953125 C 2.960938 -10.296875 3.75 -10.488281 4.625 -10.53125 C 5.914062 -10.59375 6.734375 -9.984375 7.078125 -8.703125 C 7.285156 -7.953125 7.335938 -7.195312 7.234375 -6.4375 C 7.203125 -6.269531 7.171875 -6.09375 7.140625 -5.90625 C 7.097656 -5.78125 7.0625 -5.660156 7.03125 -5.546875 C 7 -5.128906 7.179688 -4.941406 7.578125 -4.984375 C 8.660156 -5.171875 9.742188 -6.082031 10.828125 -7.71875 Z M 3.15625 -2.90625 C 3.820312 -3.21875 4.285156 -3.742188 4.546875 -4.484375 C 3.441406 -5.191406 2.703125 -6.207031 2.328125 -7.53125 C 1.984375 -6.90625 1.769531 -6.175781 1.6875 -5.34375 C 1.613281 -4.519531 1.695312 -3.835938 1.9375 -3.296875 C 2.175781 -2.765625 2.582031 -2.632812 3.15625 -2.90625 Z M 5.0625 -5.953125 C 5.238281 -6.210938 5.34375 -6.535156 5.375 -6.921875 C 5.40625 -7.304688 5.382812 -7.6875 5.3125 -8.0625 C 5.25 -8.445312 5.15625 -8.75 5.03125 -8.96875 C 4.90625 -9.1875 4.769531 -9.253906 4.625 -9.171875 C 4.375 -8.941406 4.234375 -8.613281 4.203125 -8.1875 C 4.171875 -7.769531 4.234375 -7.347656 4.390625 -6.921875 C 4.546875 -6.492188 4.769531 -6.171875 5.0625 -5.953125 Z M 5.0625 -5.953125 "/></g></g></g><g fill="#ffffff" fill-opacity="1"><g transform="translate(139.962086, 59.258797)"><g><path d="M 15.921875 -7.125 C 16.242188 -7.101562 16.296875 -6.9375 16.078125 -6.625 C 15.867188 -6.3125 15.503906 -5.914062 14.984375 -5.4375 C 14.472656 -4.96875 13.914062 -4.476562 13.3125 -3.96875 C 12.5 -3.28125 11.84375 -2.6875 11.34375 -2.1875 C 10.789062 -1.71875 10.34375 -1.0625 10 -0.21875 C 9.65625 0.613281 9.484375 1.382812 9.484375 2.09375 C 9.484375 2.46875 9.484375 2.910156 9.484375 3.421875 C 9.503906 4.472656 9.503906 5.738281 9.484375 7.21875 C 9.460938 8.707031 9.378906 10.238281 9.234375 11.8125 C 9.097656 13.394531 8.835938 14.878906 8.453125 16.265625 C 8.066406 17.648438 7.519531 18.78125 6.8125 19.65625 C 6.113281 20.539062 5.21875 21.023438 4.125 21.109375 C 2.03125 21.160156 0.59375 20.289062 -0.1875 18.5 C -0.78125 16.988281 -0.976562 15.4375 -0.78125 13.84375 C -0.59375 12.257812 -0.15625 10.707031 0.53125 9.1875 C 1.226562 7.675781 2.007812 6.285156 2.875 5.015625 C 3.75 3.742188 4.566406 2.675781 5.328125 1.8125 C 6.097656 0.957031 6.648438 0.382812 6.984375 0.09375 C 7.117188 -0.375 7.195312 -0.914062 7.21875 -1.53125 C 7.25 -2.15625 7.253906 -2.757812 7.234375 -3.34375 C 7.203125 -3.53125 7.1875 -3.691406 7.1875 -3.828125 C 6.769531 -3.191406 6.34375 -2.742188 5.90625 -2.484375 C 5.46875 -2.222656 5.023438 -2.082031 4.578125 -2.0625 C 4.128906 -2.039062 3.707031 -2.050781 3.3125 -2.09375 C 3.269531 -2.09375 3.234375 -2.09375 3.203125 -2.09375 C 2.285156 -2.21875 1.5625 -2.644531 1.03125 -3.375 C 0.507812 -4.113281 0.171875 -4.953125 0.015625 -5.890625 C -0.140625 -6.828125 -0.0976562 -7.671875 0.140625 -8.421875 C 0.378906 -9.171875 0.804688 -9.609375 1.421875 -9.734375 C 1.679688 -9.796875 1.960938 -9.828125 2.265625 -9.828125 C 2.578125 -9.828125 2.835938 -9.785156 3.046875 -9.703125 C 3.253906 -9.617188 3.320312 -9.460938 3.25 -9.234375 C 3.0625 -8.460938 2.953125 -7.628906 2.921875 -6.734375 C 2.898438 -5.835938 2.976562 -5.054688 3.15625 -4.390625 C 3.34375 -3.722656 3.671875 -3.363281 4.140625 -3.3125 C 4.617188 -3.269531 5.253906 -3.703125 6.046875 -4.609375 C 6.421875 -5.085938 6.675781 -5.578125 6.8125 -6.078125 C 6.957031 -6.585938 7.070312 -7.132812 7.15625 -7.71875 C 7.175781 -7.914062 7.210938 -8.117188 7.265625 -8.328125 C 7.285156 -8.535156 7.3125 -8.742188 7.34375 -8.953125 C 7.375 -9.222656 7.40625 -9.488281 7.4375 -9.75 C 7.539062 -10.1875 7.78125 -10.488281 8.15625 -10.65625 C 8.539062 -10.820312 8.957031 -10.804688 9.40625 -10.609375 C 9.632812 -10.472656 9.765625 -10.28125 9.796875 -10.03125 C 9.847656 -9.550781 9.875 -9.078125 9.875 -8.609375 C 9.84375 -6.941406 9.828125 -4.882812 9.828125 -2.4375 C 9.859375 -2.457031 10.066406 -2.628906 10.453125 -2.953125 C 10.941406 -3.421875 11.570312 -3.972656 12.34375 -4.609375 C 13.113281 -5.242188 13.835938 -5.816406 14.515625 -6.328125 C 15.191406 -6.835938 15.660156 -7.101562 15.921875 -7.125 Z M 6.71875 7.203125 C 6.71875 6.972656 6.734375 6.738281 6.765625 6.5 C 6.785156 5.601562 6.816406 4.703125 6.859375 3.796875 C 6.859375 3.753906 6.84375 3.703125 6.8125 3.640625 C 6.78125 3.578125 6.742188 3.535156 6.703125 3.515625 C 6.597656 3.429688 6.507812 3.414062 6.4375 3.46875 C 6.363281 3.519531 6.296875 3.578125 6.234375 3.640625 C 5.367188 4.753906 4.550781 6.019531 3.78125 7.4375 C 3.019531 8.851562 2.421875 10.328125 1.984375 11.859375 C 1.554688 13.390625 1.378906 14.890625 1.453125 16.359375 C 1.515625 17.265625 1.804688 18.097656 2.328125 18.859375 C 2.941406 19.710938 3.484375 20.019531 3.953125 19.78125 C 4.421875 19.539062 4.8125 18.953125 5.125 18.015625 C 5.445312 17.078125 5.710938 15.96875 5.921875 14.6875 C 6.128906 13.414062 6.285156 12.171875 6.390625 10.953125 C 6.503906 9.742188 6.597656 8.734375 6.671875 7.921875 C 6.691406 7.648438 6.707031 7.410156 6.71875 7.203125 Z M 6.71875 7.203125 "/></g></g></g><g fill="#ffffff" fill-opacity="1"><g transform="translate(154.872901, 59.258797)"><g/></g></g><g fill="#ffffff" fill-opacity="1"><g transform="translate(162.032347, 59.258797)"><g><path d="M 15.953125 -7.25 C 15.691406 -6.457031 15.175781 -5.550781 14.40625 -4.53125 C 13.644531 -3.507812 12.691406 -2.851562 11.546875 -2.5625 C 10.398438 -2.269531 9.40625 -2.3125 8.5625 -2.6875 C 7.726562 -3.0625 7.269531 -4.054688 7.1875 -5.671875 C 6.238281 -3.828125 5.332031 -2.644531 4.46875 -2.125 C 3.613281 -1.613281 2.722656 -1.414062 1.796875 -1.53125 C 0.742188 -1.707031 0.03125 -2.117188 -0.34375 -2.765625 C -0.71875 -3.410156 -0.84375 -4.15625 -0.71875 -5 C -0.59375 -5.851562 -0.332031 -6.671875 0.0625 -7.453125 C 0.363281 -8.035156 0.789062 -8.578125 1.34375 -9.078125 C 1.894531 -9.578125 2.472656 -9.96875 3.078125 -10.25 C 3.816406 -10.625 4.5625 -10.800781 5.3125 -10.78125 C 6.0625 -10.757812 6.863281 -10.507812 7.71875 -10.03125 C 7.738281 -10.019531 7.75 -10.039062 7.75 -10.09375 C 7.75 -10.175781 7.769531 -10.28125 7.8125 -10.40625 C 7.851562 -10.539062 7.925781 -10.644531 8.03125 -10.71875 C 8.3125 -10.925781 8.644531 -11.03125 9.03125 -11.03125 C 9.414062 -11.03125 9.710938 -10.835938 9.921875 -10.453125 C 9.960938 -9.953125 9.910156 -9.316406 9.765625 -8.546875 C 9.460938 -6.847656 9.460938 -5.628906 9.765625 -4.890625 C 10.078125 -4.148438 10.625 -3.804688 11.40625 -3.859375 C 12.195312 -3.910156 13.21875 -4.6875 14.46875 -6.1875 C 15.71875 -7.6875 16.210938 -8.039062 15.953125 -7.25 Z M 2.078125 -3.265625 C 2.503906 -2.960938 3 -3.003906 3.5625 -3.390625 C 4.125 -3.785156 4.660156 -4.34375 5.171875 -5.0625 C 5.691406 -5.789062 6.125 -6.515625 6.46875 -7.234375 C 6.820312 -7.960938 7.019531 -8.503906 7.0625 -8.859375 C 6.007812 -9.421875 5.109375 -9.515625 4.359375 -9.140625 C 3.609375 -8.773438 3.007812 -8.171875 2.5625 -7.328125 C 2.113281 -6.484375 1.847656 -5.664062 1.765625 -4.875 C 1.679688 -4.082031 1.785156 -3.546875 2.078125 -3.265625 Z M 2.078125 -3.265625 "/></g></g></g><g fill="#ffffff" fill-opacity="1"><g transform="translate(89.881852, 111.758793)"><g><path d="M 10.828125 -7.71875 C 10.972656 -7.851562 11.046875 -7.675781 11.046875 -7.1875 C 11.054688 -6.707031 10.617188 -6.03125 9.734375 -5.15625 C 8.847656 -4.289062 7.929688 -3.882812 6.984375 -3.9375 C 6.773438 -3.957031 6.597656 -3.941406 6.453125 -3.890625 C 6.304688 -3.835938 6.179688 -3.71875 6.078125 -3.53125 C 5.972656 -3.351562 5.847656 -3.195312 5.703125 -3.0625 C 5.703125 -3.0625 5.695312 -3.050781 5.6875 -3.03125 C 5.101562 -2.40625 4.414062 -1.992188 3.625 -1.796875 C 2.84375 -1.609375 2.097656 -1.671875 1.390625 -1.984375 C 0.691406 -2.304688 0.1875 -2.914062 -0.125 -3.8125 C -0.351562 -4.613281 -0.375 -5.414062 -0.1875 -6.21875 C -0.0195312 -6.925781 0.238281 -7.585938 0.59375 -8.203125 C 1.019531 -9.035156 1.578125 -9.617188 2.265625 -9.953125 C 2.960938 -10.296875 3.75 -10.488281 4.625 -10.53125 C 5.914062 -10.59375 6.734375 -9.984375 7.078125 -8.703125 C 7.285156 -7.953125 7.335938 -7.195312 7.234375 -6.4375 C 7.203125 -6.269531 7.171875 -6.09375 7.140625 -5.90625 C 7.097656 -5.78125 7.0625 -5.660156 7.03125 -5.546875 C 7 -5.128906 7.179688 -4.941406 7.578125 -4.984375 C 8.660156 -5.171875 9.742188 -6.082031 10.828125 -7.71875 Z M 3.15625 -2.90625 C 3.820312 -3.21875 4.285156 -3.742188 4.546875 -4.484375 C 3.441406 -5.191406 2.703125 -6.207031 2.328125 -7.53125 C 1.984375 -6.90625 1.769531 -6.175781 1.6875 -5.34375 C 1.613281 -4.519531 1.695312 -3.835938 1.9375 -3.296875 C 2.175781 -2.765625 2.582031 -2.632812 3.15625 -2.90625 Z M 5.0625 -5.953125 C 5.238281 -6.210938 5.34375 -6.535156 5.375 -6.921875 C 5.40625 -7.304688 5.382812 -7.6875 5.3125 -8.0625 C 5.25 -8.445312 5.15625 -8.75 5.03125 -8.96875 C 4.90625 -9.1875 4.769531 -9.253906 4.625 -9.171875 C 4.375 -8.941406 4.234375 -8.613281 4.203125 -8.1875 C 4.171875 -7.769531 4.234375 -7.347656 4.390625 -6.921875 C 4.546875 -6.492188 4.769531 -6.171875 5.0625 -5.953125 Z M 5.0625 -5.953125 "/></g></g></g><g fill="#ffffff" fill-opacity="1"><g transform="translate(100.381439, 111.758793)"><g><path d="M 9 -6.75 C 9.175781 -7.113281 9.296875 -7.28125 9.359375 -7.25 C 9.421875 -7.226562 9.4375 -7.082031 9.40625 -6.8125 C 9.375 -6.550781 9.316406 -6.25 9.234375 -5.90625 C 9.109375 -5.382812 8.894531 -4.785156 8.59375 -4.109375 C 8.300781 -3.429688 7.96875 -2.8125 7.59375 -2.25 C 7.050781 -1.476562 6.378906 -0.894531 5.578125 -0.5 C 4.773438 -0.113281 4.046875 -0.0195312 3.390625 -0.21875 C 2.734375 -0.414062 2.351562 -1.035156 2.25 -2.078125 C 2.238281 -2.941406 2.316406 -3.890625 2.484375 -4.921875 C 2.535156 -5.347656 2.597656 -5.769531 2.671875 -6.1875 C 2.671875 -6.34375 2.628906 -6.457031 2.546875 -6.53125 C 2.472656 -6.613281 2.375 -6.644531 2.25 -6.625 C 2.164062 -6.625 2.070312 -6.625 1.96875 -6.625 C 1.457031 -6.539062 0.929688 -6.550781 0.390625 -6.65625 C -0.242188 -6.84375 -0.613281 -7.160156 -0.71875 -7.609375 C -0.820312 -8.054688 -0.8125 -8.640625 -0.6875 -9.359375 C -0.625 -9.878906 -0.429688 -10.265625 -0.109375 -10.515625 C 0.203125 -10.773438 0.578125 -10.882812 1.015625 -10.84375 C 1.617188 -10.78125 1.910156 -10.546875 1.890625 -10.140625 C 1.867188 -9.742188 1.753906 -9.316406 1.546875 -8.859375 C 1.359375 -8.472656 1.257812 -8.148438 1.25 -7.890625 C 1.238281 -7.628906 1.460938 -7.535156 1.921875 -7.609375 C 2.023438 -7.640625 2.132812 -7.675781 2.25 -7.71875 C 2.425781 -7.78125 2.617188 -7.835938 2.828125 -7.890625 C 3.046875 -7.941406 3.332031 -7.953125 3.6875 -7.921875 C 4.09375 -7.898438 4.363281 -7.707031 4.5 -7.34375 C 4.632812 -6.988281 4.691406 -6.535156 4.671875 -5.984375 C 4.660156 -5.441406 4.613281 -4.890625 4.53125 -4.328125 C 4.425781 -3.617188 4.375 -3.015625 4.375 -2.515625 C 4.375 -2.015625 4.519531 -1.722656 4.8125 -1.640625 C 5.195312 -1.535156 5.769531 -1.882812 6.53125 -2.6875 C 7.300781 -3.488281 8.125 -4.84375 9 -6.75 Z M 9 -6.75 "/></g></g></g><g fill="#ffffff" fill-opacity="1"><g transform="translate(109.006599, 111.758793)"><g><path d="M 15.328125 -7.125 C 15.515625 -7.164062 15.671875 -7.175781 15.796875 -7.15625 C 15.929688 -7.144531 16.003906 -7.097656 16.015625 -7.015625 C 16.035156 -6.941406 15.921875 -6.820312 15.671875 -6.65625 C 15.566406 -6.59375 15.441406 -6.515625 15.296875 -6.421875 C 14.796875 -6.054688 14.21875 -5.660156 13.5625 -5.234375 C 12.851562 -4.753906 12.207031 -4.3125 11.625 -3.90625 C 11.050781 -3.507812 10.671875 -3.207031 10.484375 -3 C 10.273438 -2.707031 10.144531 -2.390625 10.09375 -2.046875 C 10.050781 -1.703125 10.019531 -1.332031 10 -0.9375 C 9.96875 -0.632812 9.929688 -0.328125 9.890625 -0.015625 C 9.359375 3.316406 8.453125 6.160156 7.171875 8.515625 C 5.898438 10.867188 4.46875 12.742188 2.875 14.140625 C 1.289062 15.535156 -0.257812 16.445312 -1.78125 16.875 C -3.300781 17.300781 -4.582031 17.242188 -5.625 16.703125 C -6.664062 16.160156 -7.28125 15.140625 -7.46875 13.640625 C -7.570312 12.410156 -7.320312 11.160156 -6.71875 9.890625 C -6.125 8.617188 -5.320312 7.398438 -4.3125 6.234375 C -3.3125 5.066406 -2.253906 3.992188 -1.140625 3.015625 C -0.0234375 2.046875 1.003906 1.242188 1.953125 0.609375 C 2.222656 0.421875 2.503906 0.234375 2.796875 0.046875 C 4.140625 -0.890625 5.503906 -1.789062 6.890625 -2.65625 C 7.773438 -3.144531 8.191406 -3.867188 8.140625 -4.828125 C 8.140625 -4.929688 8.140625 -5.078125 8.140625 -5.265625 C 8.109375 -5.535156 8.09375 -5.828125 8.09375 -6.140625 C 7.5625 -5.285156 6.804688 -4.515625 5.828125 -3.828125 C 4.859375 -3.148438 3.863281 -2.660156 2.84375 -2.359375 C 1.820312 -2.066406 0.945312 -2.082031 0.21875 -2.40625 C -0.5 -2.738281 -0.875 -3.503906 -0.90625 -4.703125 C -0.875 -5.328125 -0.691406 -5.898438 -0.359375 -6.421875 C 0.410156 -7.796875 1.492188 -8.878906 2.890625 -9.671875 C 3.410156 -9.953125 4.035156 -10.15625 4.765625 -10.28125 C 5.492188 -10.40625 6.195312 -10.394531 6.875 -10.25 C 7.5625 -10.101562 8.113281 -9.773438 8.53125 -9.265625 C 8.632812 -9.429688 8.785156 -9.539062 8.984375 -9.59375 C 9.179688 -9.644531 9.363281 -9.671875 9.53125 -9.671875 C 9.570312 -9.671875 9.597656 -9.671875 9.609375 -9.671875 C 10.378906 -9.742188 10.742188 -9.390625 10.703125 -8.609375 C 10.679688 -8.046875 10.660156 -7.488281 10.640625 -6.9375 C 10.617188 -6.519531 10.597656 -6.113281 10.578125 -5.71875 C 10.597656 -5.25 10.851562 -5.097656 11.34375 -5.265625 C 11.84375 -5.429688 12.445312 -5.710938 13.15625 -6.109375 C 13.957031 -6.578125 14.679688 -6.914062 15.328125 -7.125 Z M 6.28125 -6.34375 C 7.144531 -7.21875 7.617188 -7.890625 7.703125 -8.359375 C 7.492188 -8.734375 7.171875 -8.960938 6.734375 -9.046875 C 6.296875 -9.128906 5.847656 -9.125 5.390625 -9.03125 C 4.941406 -8.9375 4.566406 -8.796875 4.265625 -8.609375 C 3.398438 -8.078125 2.769531 -7.425781 2.375 -6.65625 C 1.976562 -5.894531 1.832031 -5.242188 1.9375 -4.703125 C 2.039062 -4.160156 2.441406 -3.972656 3.140625 -4.140625 C 3.835938 -4.316406 4.882812 -5.050781 6.28125 -6.34375 Z M 7.4375 -0.171875 C 7.4375 -0.203125 7.445312 -0.222656 7.46875 -0.234375 C 7.5 -0.359375 7.523438 -0.515625 7.546875 -0.703125 C 7.566406 -0.890625 7.554688 -1.046875 7.515625 -1.171875 C 7.484375 -1.296875 7.410156 -1.316406 7.296875 -1.234375 C 6.421875 -0.628906 5.507812 0.0351562 4.5625 0.765625 C 4 1.171875 3.46875 1.550781 2.96875 1.90625 C 2.28125 2.414062 1.46875 3.082031 0.53125 3.90625 C -0.394531 4.738281 -1.300781 5.664062 -2.1875 6.6875 C -3.082031 7.71875 -3.816406 8.769531 -4.390625 9.84375 C -4.972656 10.925781 -5.265625 11.957031 -5.265625 12.9375 C -5.203125 14.351562 -4.804688 15.203125 -4.078125 15.484375 C -3.359375 15.773438 -2.453125 15.597656 -1.359375 14.953125 C -0.265625 14.316406 0.867188 13.285156 2.046875 11.859375 C 3.234375 10.429688 4.3125 8.691406 5.28125 6.640625 C 6.25 4.597656 6.96875 2.328125 7.4375 -0.171875 Z M 7.4375 -0.171875 "/></g></g></g><g fill="#ffffff" fill-opacity="1"><g transform="translate(123.931513, 111.758793)"><g><path d="M 15.953125 -7.25 C 15.691406 -6.457031 15.175781 -5.550781 14.40625 -4.53125 C 13.644531 -3.507812 12.691406 -2.851562 11.546875 -2.5625 C 10.398438 -2.269531 9.40625 -2.3125 8.5625 -2.6875 C 7.726562 -3.0625 7.269531 -4.054688 7.1875 -5.671875 C 6.238281 -3.828125 5.332031 -2.644531 4.46875 -2.125 C 3.613281 -1.613281 2.722656 -1.414062 1.796875 -1.53125 C 0.742188 -1.707031 0.03125 -2.117188 -0.34375 -2.765625 C -0.71875 -3.410156 -0.84375 -4.15625 -0.71875 -5 C -0.59375 -5.851562 -0.332031 -6.671875 0.0625 -7.453125 C 0.363281 -8.035156 0.789062 -8.578125 1.34375 -9.078125 C 1.894531 -9.578125 2.472656 -9.96875 3.078125 -10.25 C 3.816406 -10.625 4.5625 -10.800781 5.3125 -10.78125 C 6.0625 -10.757812 6.863281 -10.507812 7.71875 -10.03125 C 7.738281 -10.019531 7.75 -10.039062 7.75 -10.09375 C 7.75 -10.175781 7.769531 -10.28125 7.8125 -10.40625 C 7.851562 -10.539062 7.925781 -10.644531 8.03125 -10.71875 C 8.3125 -10.925781 8.644531 -11.03125 9.03125 -11.03125 C 9.414062 -11.03125 9.710938 -10.835938 9.921875 -10.453125 C 9.960938 -9.953125 9.910156 -9.316406 9.765625 -8.546875 C 9.460938 -6.847656 9.460938 -5.628906 9.765625 -4.890625 C 10.078125 -4.148438 10.625 -3.804688 11.40625 -3.859375 C 12.195312 -3.910156 13.21875 -4.6875 14.46875 -6.1875 C 15.71875 -7.6875 16.210938 -8.039062 15.953125 -7.25 Z M 2.078125 -3.265625 C 2.503906 -2.960938 3 -3.003906 3.5625 -3.390625 C 4.125 -3.785156 4.660156 -4.34375 5.171875 -5.0625 C 5.691406 -5.789062 6.125 -6.515625 6.46875 -7.234375 C 6.820312 -7.960938 7.019531 -8.503906 7.0625 -8.859375 C 6.007812 -9.421875 5.109375 -9.515625 4.359375 -9.140625 C 3.609375 -8.773438 3.007812 -8.171875 2.5625 -7.328125 C 2.113281 -6.484375 1.847656 -5.664062 1.765625 -4.875 C 1.679688 -4.082031 1.785156 -3.546875 2.078125 -3.265625 Z M 2.078125 -3.265625 "/></g></g></g><g fill="#ffffff" fill-opacity="1"><g transform="translate(138.870515, 111.758793)"><g><path d="M 11.65625 -5.421875 C 12.382812 -6.566406 12.816406 -7.296875 12.953125 -7.609375 C 13.085938 -7.921875 13.191406 -7.90625 13.265625 -7.5625 C 13.347656 -7.226562 13.117188 -6.46875 12.578125 -5.28125 C 12.035156 -4.09375 11.359375 -3.175781 10.546875 -2.53125 C 9.734375 -1.882812 8.976562 -1.644531 8.28125 -1.8125 C 7.582031 -1.988281 7.082031 -2.476562 6.78125 -3.28125 C 6.476562 -4.082031 6.390625 -5.09375 6.515625 -6.3125 C 6.515625 -6.332031 6.523438 -6.382812 6.546875 -6.46875 C 6.554688 -6.675781 6.585938 -6.984375 6.640625 -7.390625 C 6.691406 -7.796875 6.726562 -8.210938 6.75 -8.640625 C 6.78125 -9.078125 6.769531 -9.4375 6.71875 -9.71875 C 6.664062 -10 6.535156 -10.097656 6.328125 -10.015625 C 5.828125 -9.734375 5.335938 -9.195312 4.859375 -8.40625 C 4.390625 -7.613281 3.960938 -6.78125 3.578125 -5.90625 C 3.191406 -5.039062 2.921875 -4.34375 2.765625 -3.8125 C 2.703125 -3.632812 2.640625 -3.453125 2.578125 -3.265625 C 2.492188 -3.023438 2.398438 -2.78125 2.296875 -2.53125 C 2.023438 -1.832031 1.550781 -1.5625 0.875 -1.71875 C 0.5 -1.800781 0.28125 -2.03125 0.21875 -2.40625 C 0.195312 -2.695312 0.1875 -2.976562 0.1875 -3.25 C 0.1875 -3.414062 0.175781 -3.566406 0.15625 -3.703125 C 0.113281 -5.796875 0.0625 -7.898438 0 -10.015625 C 0.0195312 -10.253906 0.128906 -10.421875 0.328125 -10.515625 C 0.523438 -10.609375 0.757812 -10.65625 1.03125 -10.65625 C 1.238281 -10.65625 1.429688 -10.597656 1.609375 -10.484375 C 1.796875 -10.378906 1.910156 -10.144531 1.953125 -9.78125 C 1.972656 -9.65625 1.984375 -9.535156 1.984375 -9.421875 C 2.003906 -9.347656 2.015625 -9.285156 2.015625 -9.234375 C 2.054688 -8.941406 2.078125 -8.691406 2.078125 -8.484375 C 2.078125 -8.171875 2.097656 -7.957031 2.140625 -7.84375 C 2.179688 -7.738281 2.269531 -7.742188 2.40625 -7.859375 C 2.539062 -7.984375 2.765625 -8.273438 3.078125 -8.734375 C 3.609375 -9.566406 4.269531 -10.269531 5.0625 -10.84375 C 5.78125 -11.363281 6.570312 -11.578125 7.4375 -11.484375 C 8.1875 -11.410156 8.6875 -11.023438 8.9375 -10.328125 C 9.039062 -9.960938 9.09375 -9.597656 9.09375 -9.234375 C 9.09375 -8.878906 9.070312 -8.519531 9.03125 -8.15625 C 9.007812 -7.769531 8.976562 -7.382812 8.9375 -7 C 8.90625 -6.875 8.882812 -6.75 8.875 -6.625 C 8.75 -5.28125 8.789062 -4.378906 9 -3.921875 C 9.207031 -3.472656 9.519531 -3.320312 9.9375 -3.46875 C 10.363281 -3.625 10.9375 -4.273438 11.65625 -5.421875 Z M 11.65625 -5.421875 "/></g></g></g><g fill="#ffffff" fill-opacity="1"><g transform="translate(151.272705, 111.758793)"><g><path d="M 7.3125 -5.71875 C 7.019531 -5.125 6.523438 -4.457031 5.828125 -3.71875 C 5.128906 -2.988281 4.332031 -2.523438 3.4375 -2.328125 C 2.550781 -2.128906 1.707031 -2.4375 0.90625 -3.25 C 0.59375 -3.601562 0.363281 -4.007812 0.21875 -4.46875 C 0.0703125 -4.9375 0.0195312 -5.394531 0.0625 -5.84375 C 0.0625 -5.96875 0.0625 -6.125 0.0625 -6.3125 C 0.0625 -6.789062 0.0820312 -7.34375 0.125 -7.96875 C 0.164062 -8.601562 0.257812 -9.175781 0.40625 -9.6875 C 0.550781 -10.195312 0.773438 -10.503906 1.078125 -10.609375 C 1.972656 -10.828125 2.457031 -10.515625 2.53125 -9.671875 C 2.53125 -9.398438 2.523438 -9.128906 2.515625 -8.859375 C 2.492188 -8.710938 2.484375 -8.578125 2.484375 -8.453125 C 2.460938 -8.066406 2.441406 -7.675781 2.421875 -7.28125 C 2.421875 -6.96875 2.40625 -6.65625 2.375 -6.34375 C 2.363281 -4.976562 2.671875 -4.164062 3.296875 -3.90625 C 3.929688 -3.65625 4.648438 -3.929688 5.453125 -4.734375 C 6.265625 -5.546875 6.796875 -6.21875 7.046875 -6.75 C 7.296875 -7.289062 7.472656 -7.40625 7.578125 -7.09375 C 7.691406 -6.78125 7.601562 -6.320312 7.3125 -5.71875 Z M 2.359375 -13.5 C 2.234375 -13.40625 2.082031 -13.34375 1.90625 -13.3125 C 1.738281 -13.28125 1.585938 -13.296875 1.453125 -13.359375 C 1.347656 -13.441406 1.28125 -13.550781 1.25 -13.6875 C 1.226562 -13.820312 1.21875 -13.984375 1.21875 -14.171875 C 1.21875 -14.203125 1.222656 -14.238281 1.234375 -14.28125 C 1.253906 -14.445312 1.300781 -14.617188 1.375 -14.796875 C 1.5625 -15.242188 1.945312 -15.445312 2.53125 -15.40625 C 2.738281 -15.382812 2.898438 -15.300781 3.015625 -15.15625 C 3.140625 -15.007812 3.171875 -14.84375 3.109375 -14.65625 C 2.960938 -14.195312 2.710938 -13.8125 2.359375 -13.5 Z M 2.359375 -13.5 "/></g></g></g><g fill="#ffffff" fill-opacity="1"><g transform="translate(158.192569, 111.758793)"><g><path d="M 10.984375 -6.90625 C 11.140625 -6.988281 11.269531 -7.023438 11.375 -7.015625 C 11.476562 -7.003906 11.554688 -6.960938 11.609375 -6.890625 C 11.660156 -6.816406 11.6875 -6.742188 11.6875 -6.671875 C 11.6875 -6.597656 11.675781 -6.550781 11.65625 -6.53125 C 11.257812 -6.113281 10.828125 -5.671875 10.359375 -5.203125 C 9.722656 -4.578125 9.085938 -3.9375 8.453125 -3.28125 C 7.816406 -2.632812 7.285156 -2.023438 6.859375 -1.453125 C 6.628906 -1.179688 6.632812 -0.921875 6.875 -0.671875 C 7.289062 -0.210938 7.679688 0.410156 8.046875 1.203125 C 8.410156 1.992188 8.664062 2.84375 8.8125 3.75 C 8.96875 4.65625 8.945312 5.472656 8.75 6.203125 C 8.5625 6.929688 8.109375 7.453125 7.390625 7.765625 C 6.265625 8.160156 5.242188 8.070312 4.328125 7.5 C 3.421875 6.9375 2.898438 6.0625 2.765625 4.875 C 2.703125 3.789062 2.914062 2.75 3.40625 1.75 C 3.59375 1.351562 3.800781 0.972656 4.03125 0.609375 C 4.15625 0.367188 4.269531 0.144531 4.375 -0.0625 C 4.59375 -0.425781 4.507812 -0.691406 4.125 -0.859375 C 3.375 -1.203125 2.609375 -1.328125 1.828125 -1.234375 C 1.328125 -1.128906 0.835938 -1.148438 0.359375 -1.296875 C 0.222656 -1.367188 0.132812 -1.472656 0.09375 -1.609375 C 0.0507812 -1.742188 0.0820312 -1.875 0.1875 -2 C 0.539062 -2.351562 0.898438 -2.695312 1.265625 -3.03125 C 2.179688 -3.789062 3.023438 -4.695312 3.796875 -5.75 C 4.578125 -6.8125 5.164062 -7.921875 5.5625 -9.078125 C 5.59375 -9.222656 5.578125 -9.363281 5.515625 -9.5 C 5.453125 -9.632812 5.363281 -9.742188 5.25 -9.828125 C 4.914062 -10.066406 4.539062 -10.179688 4.125 -10.171875 C 3.425781 -10.117188 2.796875 -9.882812 2.234375 -9.46875 C 1.859375 -9.207031 1.695312 -8.957031 1.75 -8.71875 C 1.800781 -8.476562 1.929688 -8.238281 2.140625 -8 C 2.296875 -7.789062 2.441406 -7.570312 2.578125 -7.34375 C 2.597656 -7.257812 2.566406 -7.164062 2.484375 -7.0625 C 2.398438 -6.957031 2.296875 -6.867188 2.171875 -6.796875 C 2.046875 -6.722656 1.929688 -6.675781 1.828125 -6.65625 C 1.429688 -6.570312 1.070312 -6.664062 0.75 -6.9375 C 0.289062 -7.351562 0.0507812 -7.84375 0.03125 -8.40625 C 0.0078125 -8.976562 0.21875 -9.476562 0.65625 -9.90625 C 0.957031 -10.1875 1.289062 -10.40625 1.65625 -10.5625 C 2.269531 -10.875 2.894531 -11.054688 3.53125 -11.109375 C 4.175781 -11.160156 4.84375 -11.132812 5.53125 -11.03125 C 5.894531 -10.945312 6.253906 -10.804688 6.609375 -10.609375 C 7.390625 -10.140625 7.648438 -9.46875 7.390625 -8.59375 C 7.078125 -7.695312 6.585938 -6.753906 5.921875 -5.765625 C 5.265625 -4.785156 4.613281 -3.976562 3.96875 -3.34375 C 3.882812 -3.257812 3.8125 -3.195312 3.75 -3.15625 C 3.601562 -3.007812 3.488281 -2.882812 3.40625 -2.78125 C 3.320312 -2.675781 3.289062 -2.570312 3.3125 -2.46875 C 3.769531 -2.507812 4.160156 -2.472656 4.484375 -2.359375 C 4.816406 -2.242188 5.128906 -2.082031 5.421875 -1.875 C 5.628906 -1.925781 5.941406 -2.148438 6.359375 -2.546875 C 6.785156 -2.953125 7.269531 -3.429688 7.8125 -3.984375 C 8.375 -4.585938 8.929688 -5.15625 9.484375 -5.6875 C 10.046875 -6.226562 10.546875 -6.632812 10.984375 -6.90625 Z M 5.5625 6.921875 C 6.15625 7.171875 6.539062 7.070312 6.71875 6.625 C 6.894531 6.1875 6.945312 5.578125 6.875 4.796875 C 6.800781 4.023438 6.675781 3.285156 6.5 2.578125 C 6.320312 1.878906 6.171875 1.394531 6.046875 1.125 C 5.984375 1.019531 5.914062 0.921875 5.84375 0.828125 C 5.769531 0.734375 5.648438 0.660156 5.484375 0.609375 C 4.703125 1.640625 4.25 2.804688 4.125 4.109375 C 4.0625 4.722656 4.164062 5.285156 4.4375 5.796875 C 4.707031 6.304688 5.082031 6.679688 5.5625 6.921875 Z M 5.5625 6.921875 "/></g></g></g><g fill="#ffffff" fill-opacity="1"><g transform="translate(168.692156, 111.758793)"><g><path d="M 15.953125 -7.25 C 15.691406 -6.457031 15.175781 -5.550781 14.40625 -4.53125 C 13.644531 -3.507812 12.691406 -2.851562 11.546875 -2.5625 C 10.398438 -2.269531 9.40625 -2.3125 8.5625 -2.6875 C 7.726562 -3.0625 7.269531 -4.054688 7.1875 -5.671875 C 6.238281 -3.828125 5.332031 -2.644531 4.46875 -2.125 C 3.613281 -1.613281 2.722656 -1.414062 1.796875 -1.53125 C 0.742188 -1.707031 0.03125 -2.117188 -0.34375 -2.765625 C -0.71875 -3.410156 -0.84375 -4.15625 -0.71875 -5 C -0.59375 -5.851562 -0.332031 -6.671875 0.0625 -7.453125 C 0.363281 -8.035156 0.789062 -8.578125 1.34375 -9.078125 C 1.894531 -9.578125 2.472656 -9.96875 3.078125 -10.25 C 3.816406 -10.625 4.5625 -10.800781 5.3125 -10.78125 C 6.0625 -10.757812 6.863281 -10.507812 7.71875 -10.03125 C 7.738281 -10.019531 7.75 -10.039062 7.75 -10.09375 C 7.75 -10.175781 7.769531 -10.28125 7.8125 -10.40625 C 7.851562 -10.539062 7.925781 -10.644531 8.03125 -10.71875 C 8.3125 -10.925781 8.644531 -11.03125 9.03125 -11.03125 C 9.414062 -11.03125 9.710938 -10.835938 9.921875 -10.453125 C 9.960938 -9.953125 9.910156 -9.316406 9.765625 -8.546875 C 9.460938 -6.847656 9.460938 -5.628906 9.765625 -4.890625 C 10.078125 -4.148438 10.625 -3.804688 11.40625 -3.859375 C 12.195312 -3.910156 13.21875 -4.6875 14.46875 -6.1875 C 15.71875 -7.6875 16.210938 -8.039062 15.953125 -7.25 Z M 2.078125 -3.265625 C 2.503906 -2.960938 3 -3.003906 3.5625 -3.390625 C 4.125 -3.785156 4.660156 -4.34375 5.171875 -5.0625 C 5.691406 -5.789062 6.125 -6.515625 6.46875 -7.234375 C 6.820312 -7.960938 7.019531 -8.503906 7.0625 -8.859375 C 6.007812 -9.421875 5.109375 -9.515625 4.359375 -9.140625 C 3.609375 -8.773438 3.007812 -8.171875 2.5625 -7.328125 C 2.113281 -6.484375 1.847656 -5.664062 1.765625 -4.875 C 1.679688 -4.082031 1.785156 -3.546875 2.078125 -3.265625 Z M 2.078125 -3.265625 "/></g></g></g><g fill="#ffffff" fill-opacity="1"><g transform="translate(183.631158, 111.758793)"><g><path d="M 9 -6.75 C 9.175781 -7.113281 9.296875 -7.28125 9.359375 -7.25 C 9.421875 -7.226562 9.4375 -7.082031 9.40625 -6.8125 C 9.375 -6.550781 9.316406 -6.25 9.234375 -5.90625 C 9.109375 -5.382812 8.894531 -4.785156 8.59375 -4.109375 C 8.300781 -3.429688 7.96875 -2.8125 7.59375 -2.25 C 7.050781 -1.476562 6.378906 -0.894531 5.578125 -0.5 C 4.773438 -0.113281 4.046875 -0.0195312 3.390625 -0.21875 C 2.734375 -0.414062 2.351562 -1.035156 2.25 -2.078125 C 2.238281 -2.941406 2.316406 -3.890625 2.484375 -4.921875 C 2.535156 -5.347656 2.597656 -5.769531 2.671875 -6.1875 C 2.671875 -6.34375 2.628906 -6.457031 2.546875 -6.53125 C 2.472656 -6.613281 2.375 -6.644531 2.25 -6.625 C 2.164062 -6.625 2.070312 -6.625 1.96875 -6.625 C 1.457031 -6.539062 0.929688 -6.550781 0.390625 -6.65625 C -0.242188 -6.84375 -0.613281 -7.160156 -0.71875 -7.609375 C -0.820312 -8.054688 -0.8125 -8.640625 -0.6875 -9.359375 C -0.625 -9.878906 -0.429688 -10.265625 -0.109375 -10.515625 C 0.203125 -10.773438 0.578125 -10.882812 1.015625 -10.84375 C 1.617188 -10.78125 1.910156 -10.546875 1.890625 -10.140625 C 1.867188 -9.742188 1.753906 -9.316406 1.546875 -8.859375 C 1.359375 -8.472656 1.257812 -8.148438 1.25 -7.890625 C 1.238281 -7.628906 1.460938 -7.535156 1.921875 -7.609375 C 2.023438 -7.640625 2.132812 -7.675781 2.25 -7.71875 C 2.425781 -7.78125 2.617188 -7.835938 2.828125 -7.890625 C 3.046875 -7.941406 3.332031 -7.953125 3.6875 -7.921875 C 4.09375 -7.898438 4.363281 -7.707031 4.5 -7.34375 C 4.632812 -6.988281 4.691406 -6.535156 4.671875 -5.984375 C 4.660156 -5.441406 4.613281 -4.890625 4.53125 -4.328125 C 4.425781 -3.617188 4.375 -3.015625 4.375 -2.515625 C 4.375 -2.015625 4.519531 -1.722656 4.8125 -1.640625 C 5.195312 -1.535156 5.769531 -1.882812 6.53125 -2.6875 C 7.300781 -3.488281 8.125 -4.84375 9 -6.75 Z M 9 -6.75 "/></g></g></g><g fill="#ffffff" fill-opacity="1"><g transform="translate(102.655289, 164.258788)"><g><path d="M 13.59375 -6.8125 C 13.800781 -6.9375 14.003906 -7.03125 14.203125 -7.09375 C 14.398438 -7.15625 14.523438 -7.148438 14.578125 -7.078125 C 14.640625 -7.003906 14.5625 -6.832031 14.34375 -6.5625 C 13.632812 -5.757812 12.785156 -5.019531 11.796875 -4.34375 C 10.816406 -3.675781 9.8125 -3.113281 8.78125 -2.65625 C 7.976562 -2.28125 7.125 -1.984375 6.21875 -1.765625 C 5.320312 -1.554688 4.429688 -1.507812 3.546875 -1.625 C 2.671875 -1.75 1.875 -2.144531 1.15625 -2.8125 C 0.0507812 -3.820312 -0.40625 -5.0625 -0.21875 -6.53125 C -0.0507812 -7.695312 0.398438 -8.6875 1.140625 -9.5 C 1.890625 -10.3125 2.832031 -10.863281 3.96875 -11.15625 C 4.925781 -11.363281 5.878906 -11.382812 6.828125 -11.21875 C 7.253906 -11.15625 7.648438 -11.007812 8.015625 -10.78125 C 8.335938 -10.53125 8.515625 -10.234375 8.546875 -9.890625 C 8.578125 -9.554688 8.445312 -9.234375 8.15625 -8.921875 C 7.5625 -8.390625 6.867188 -8.070312 6.078125 -7.96875 C 5.191406 -7.8125 4.300781 -7.71875 3.40625 -7.6875 C 2.976562 -7.6875 2.675781 -7.59375 2.5 -7.40625 C 2.320312 -7.226562 2.222656 -6.925781 2.203125 -6.5 C 2.054688 -5.320312 2.429688 -4.363281 3.328125 -3.625 C 3.878906 -3.175781 4.550781 -2.984375 5.34375 -3.046875 C 6.144531 -3.117188 6.988281 -3.335938 7.875 -3.703125 C 8.769531 -4.066406 9.644531 -4.488281 10.5 -4.96875 C 11.351562 -5.457031 12.125 -5.914062 12.8125 -6.34375 C 13.101562 -6.53125 13.363281 -6.6875 13.59375 -6.8125 Z M 3.796875 -9.3125 C 3.796875 -9.300781 3.78125 -9.296875 3.75 -9.296875 C 3.707031 -9.253906 3.65625 -9.207031 3.59375 -9.15625 C 3.539062 -9.101562 3.488281 -9.050781 3.4375 -9 C 3.382812 -8.945312 3.359375 -8.910156 3.359375 -8.890625 C 3.378906 -8.828125 3.546875 -8.8125 3.859375 -8.84375 C 4.179688 -8.875 4.535156 -8.929688 4.921875 -9.015625 C 5.304688 -9.097656 5.628906 -9.207031 5.890625 -9.34375 C 6.148438 -9.476562 6.226562 -9.640625 6.125 -9.828125 C 6.070312 -9.878906 6.007812 -9.925781 5.9375 -9.96875 C 5.875 -10.007812 5.796875 -10.039062 5.703125 -10.0625 C 5.328125 -10.0625 4.984375 -9.988281 4.671875 -9.84375 C 4.367188 -9.695312 4.078125 -9.519531 3.796875 -9.3125 Z M 3.796875 -9.3125 "/></g></g></g><g fill="#ffffff" fill-opacity="1"><g transform="translate(116.297698, 164.258788)"><g><path d="M 10.171875 -6.5625 C 10.335938 -6.945312 10.515625 -7.140625 10.703125 -7.140625 C 10.890625 -7.140625 10.953125 -6.945312 10.890625 -6.5625 C 10.578125 -5.601562 10.203125 -4.6875 9.765625 -3.8125 C 9.335938 -2.9375 8.753906 -2.148438 8.015625 -1.453125 C 7.441406 -0.890625 6.765625 -0.523438 5.984375 -0.359375 C 4.929688 -0.210938 4.054688 -0.34375 3.359375 -0.75 C 2.671875 -1.15625 2.125 -1.734375 1.71875 -2.484375 C 1.3125 -3.242188 1.007812 -4.070312 0.8125 -4.96875 C 0.613281 -5.863281 0.488281 -6.734375 0.4375 -7.578125 C 0.289062 -9.179688 0.179688 -11.285156 0.109375 -13.890625 C 0.0351562 -16.492188 0.0546875 -19.242188 0.171875 -22.140625 C 0.296875 -25.046875 0.582031 -27.738281 1.03125 -30.21875 C 1.476562 -32.707031 2.132812 -34.632812 3 -36 C 3.5 -36.664062 4.078125 -37.003906 4.734375 -37.015625 C 5.398438 -37.023438 5.992188 -36.71875 6.515625 -36.09375 C 6.859375 -35.613281 7.117188 -35.101562 7.296875 -34.5625 C 7.484375 -34.03125 7.601562 -33.488281 7.65625 -32.9375 C 7.84375 -31.03125 7.816406 -29.015625 7.578125 -26.890625 C 7.347656 -24.773438 6.976562 -22.515625 6.46875 -20.109375 C 5.957031 -17.703125 5.347656 -15.582031 4.640625 -13.75 C 3.941406 -11.914062 3.359375 -10.460938 2.890625 -9.390625 C 2.640625 -8.953125 2.546875 -8.300781 2.609375 -7.4375 C 2.691406 -6.476562 2.867188 -5.484375 3.140625 -4.453125 C 3.421875 -3.421875 3.8125 -2.601562 4.3125 -2 C 4.78125 -1.5 5.304688 -1.34375 5.890625 -1.53125 C 6.472656 -1.71875 7.050781 -2.113281 7.625 -2.71875 C 8.207031 -3.320312 8.71875 -3.976562 9.15625 -4.6875 C 9.601562 -5.394531 9.941406 -6.019531 10.171875 -6.5625 Z M 2.671875 -21 C 2.609375 -20.375 2.550781 -19.429688 2.5 -18.171875 C 2.445312 -16.921875 2.398438 -15.648438 2.359375 -14.359375 C 2.316406 -12.910156 2.273438 -11.78125 2.234375 -10.96875 C 2.691406 -12 3.222656 -13.5 3.828125 -15.46875 C 4.441406 -17.445312 5 -19.773438 5.5 -22.453125 C 6.007812 -25.140625 6.335938 -28.039062 6.484375 -31.15625 C 6.398438 -32.976562 6.179688 -34.210938 5.828125 -34.859375 C 5.472656 -35.515625 5.085938 -35.570312 4.671875 -35.03125 C 4.265625 -34.5 3.9375 -33.375 3.6875 -31.65625 C 3.3125 -28.800781 3.019531 -25.945312 2.8125 -23.09375 C 2.757812 -22.382812 2.710938 -21.6875 2.671875 -21 Z M 2.671875 -21 "/></g></g></g><g fill="#ffffff" fill-opacity="1"><g transform="translate(126.318109, 164.258788)"><g/></g></g><g fill="#ffffff" fill-opacity="1"><g transform="translate(133.477555, 164.258788)"><g><path d="M 13.078125 -6.875 C 13.472656 -7.125 13.734375 -7.195312 13.859375 -7.09375 C 13.992188 -6.988281 13.914062 -6.738281 13.625 -6.34375 C 12.769531 -5.332031 11.71875 -4.382812 10.46875 -3.5 C 9.21875 -2.625 7.96875 -1.992188 6.71875 -1.609375 C 5.925781 -1.316406 5.070312 -1.171875 4.15625 -1.171875 C 3.519531 -1.148438 2.878906 -1.242188 2.234375 -1.453125 C 0.828125 -1.898438 0.03125 -2.859375 -0.15625 -4.328125 C -0.257812 -5.140625 -0.207031 -5.945312 0 -6.75 C 0.238281 -7.582031 0.632812 -8.304688 1.1875 -8.921875 C 1.738281 -9.546875 2.421875 -10.019531 3.234375 -10.34375 C 3.992188 -10.632812 4.78125 -10.75 5.59375 -10.6875 C 6.414062 -10.632812 7.082031 -10.375 7.59375 -9.90625 C 7.675781 -9.820312 7.71875 -9.71875 7.71875 -9.59375 C 7.71875 -9.476562 7.695312 -9.359375 7.65625 -9.234375 C 7.53125 -8.859375 7.351562 -8.679688 7.125 -8.703125 C 6.90625 -8.722656 6.640625 -8.816406 6.328125 -8.984375 C 6.097656 -9.109375 5.847656 -9.21875 5.578125 -9.3125 C 5.304688 -9.414062 5.03125 -9.441406 4.75 -9.390625 C 3.9375 -9.265625 3.265625 -8.828125 2.734375 -8.078125 C 2.296875 -7.453125 2 -6.757812 1.84375 -6 C 1.6875 -5.238281 1.742188 -4.5625 2.015625 -3.96875 C 2.347656 -3.34375 2.882812 -2.988281 3.625 -2.90625 C 4.375 -2.820312 5.222656 -2.90625 6.171875 -3.15625 C 7.117188 -3.414062 8.066406 -3.773438 9.015625 -4.234375 C 9.972656 -4.691406 10.816406 -5.15625 11.546875 -5.625 C 12.285156 -6.101562 12.796875 -6.519531 13.078125 -6.875 Z M 13.078125 -6.875 "/></g></g></g><g fill="#ffffff" fill-opacity="1"><g transform="translate(146.443482, 164.258788)"><g><path d="M 15.953125 -7.25 C 15.691406 -6.457031 15.175781 -5.550781 14.40625 -4.53125 C 13.644531 -3.507812 12.691406 -2.851562 11.546875 -2.5625 C 10.398438 -2.269531 9.40625 -2.3125 8.5625 -2.6875 C 7.726562 -3.0625 7.269531 -4.054688 7.1875 -5.671875 C 6.238281 -3.828125 5.332031 -2.644531 4.46875 -2.125 C 3.613281 -1.613281 2.722656 -1.414062 1.796875 -1.53125 C 0.742188 -1.707031 0.03125 -2.117188 -0.34375 -2.765625 C -0.71875 -3.410156 -0.84375 -4.15625 -0.71875 -5 C -0.59375 -5.851562 -0.332031 -6.671875 0.0625 -7.453125 C 0.363281 -8.035156 0.789062 -8.578125 1.34375 -9.078125 C 1.894531 -9.578125 2.472656 -9.96875 3.078125 -10.25 C 3.816406 -10.625 4.5625 -10.800781 5.3125 -10.78125 C 6.0625 -10.757812 6.863281 -10.507812 7.71875 -10.03125 C 7.738281 -10.019531 7.75 -10.039062 7.75 -10.09375 C 7.75 -10.175781 7.769531 -10.28125 7.8125 -10.40625 C 7.851562 -10.539062 7.925781 -10.644531 8.03125 -10.71875 C 8.3125 -10.925781 8.644531 -11.03125 9.03125 -11.03125 C 9.414062 -11.03125 9.710938 -10.835938 9.921875 -10.453125 C 9.960938 -9.953125 9.910156 -9.316406 9.765625 -8.546875 C 9.460938 -6.847656 9.460938 -5.628906 9.765625 -4.890625 C 10.078125 -4.148438 10.625 -3.804688 11.40625 -3.859375 C 12.195312 -3.910156 13.21875 -4.6875 14.46875 -6.1875 C 15.71875 -7.6875 16.210938 -8.039062 15.953125 -7.25 Z M 2.078125 -3.265625 C 2.503906 -2.960938 3 -3.003906 3.5625 -3.390625 C 4.125 -3.785156 4.660156 -4.34375 5.171875 -5.0625 C 5.691406 -5.789062 6.125 -6.515625 6.46875 -7.234375 C 6.820312 -7.960938 7.019531 -8.503906 7.0625 -8.859375 C 6.007812 -9.421875 5.109375 -9.515625 4.359375 -9.140625 C 3.609375 -8.773438 3.007812 -8.171875 2.5625 -7.328125 C 2.113281 -6.484375 1.847656 -5.664062 1.765625 -4.875 C 1.679688 -4.082031 1.785156 -3.546875 2.078125 -3.265625 Z M 2.078125 -3.265625 "/></g></g></g><g fill="#ffffff" fill-opacity="1"><g transform="translate(161.382484, 164.258788)"><g><path d="M 10.828125 -7.71875 C 10.972656 -7.851562 11.046875 -7.675781 11.046875 -7.1875 C 11.054688 -6.707031 10.617188 -6.03125 9.734375 -5.15625 C 8.847656 -4.289062 7.929688 -3.882812 6.984375 -3.9375 C 6.773438 -3.957031 6.597656 -3.941406 6.453125 -3.890625 C 6.304688 -3.835938 6.179688 -3.71875 6.078125 -3.53125 C 5.972656 -3.351562 5.847656 -3.195312 5.703125 -3.0625 C 5.703125 -3.0625 5.695312 -3.050781 5.6875 -3.03125 C 5.101562 -2.40625 4.414062 -1.992188 3.625 -1.796875 C 2.84375 -1.609375 2.097656 -1.671875 1.390625 -1.984375 C 0.691406 -2.304688 0.1875 -2.914062 -0.125 -3.8125 C -0.351562 -4.613281 -0.375 -5.414062 -0.1875 -6.21875 C -0.0195312 -6.925781 0.238281 -7.585938 0.59375 -8.203125 C 1.019531 -9.035156 1.578125 -9.617188 2.265625 -9.953125 C 2.960938 -10.296875 3.75 -10.488281 4.625 -10.53125 C 5.914062 -10.59375 6.734375 -9.984375 7.078125 -8.703125 C 7.285156 -7.953125 7.335938 -7.195312 7.234375 -6.4375 C 7.203125 -6.269531 7.171875 -6.09375 7.140625 -5.90625 C 7.097656 -5.78125 7.0625 -5.660156 7.03125 -5.546875 C 7 -5.128906 7.179688 -4.941406 7.578125 -4.984375 C 8.660156 -5.171875 9.742188 -6.082031 10.828125 -7.71875 Z M 3.15625 -2.90625 C 3.820312 -3.21875 4.285156 -3.742188 4.546875 -4.484375 C 3.441406 -5.191406 2.703125 -6.207031 2.328125 -7.53125 C 1.984375 -6.90625 1.769531 -6.175781 1.6875 -5.34375 C 1.613281 -4.519531 1.695312 -3.835938 1.9375 -3.296875 C 2.175781 -2.765625 2.582031 -2.632812 3.15625 -2.90625 Z M 5.0625 -5.953125 C 5.238281 -6.210938 5.34375 -6.535156 5.375 -6.921875 C 5.40625 -7.304688 5.382812 -7.6875 5.3125 -8.0625 C 5.25 -8.445312 5.15625 -8.75 5.03125 -8.96875 C 4.90625 -9.1875 4.769531 -9.253906 4.625 -9.171875 C 4.375 -8.941406 4.234375 -8.613281 4.203125 -8.1875 C 4.171875 -7.769531 4.234375 -7.347656 4.390625 -6.921875 C 4.546875 -6.492188 4.769531 -6.171875 5.0625 -5.953125 Z M 5.0625 -5.953125 "/></g></g></g><g fill="#ffffff" fill-opacity="1"><g transform="translate(171.882071, 164.258788)"><g><path d="M 8.5625 -7.6875 C 8.5625 -7.476562 8.101562 -7.097656 7.1875 -6.546875 C 6.28125 -5.992188 5.609375 -5.578125 5.171875 -5.296875 C 4.742188 -5.023438 4.53125 -4.859375 4.53125 -4.796875 C 4.613281 -4.609375 4.703125 -4.289062 4.796875 -3.84375 C 4.890625 -3.40625 4.921875 -2.925781 4.890625 -2.40625 C 4.867188 -1.894531 4.703125 -1.4375 4.390625 -1.03125 C 4.085938 -0.625 3.570312 -0.378906 2.84375 -0.296875 C 2.125 -0.242188 1.476562 -0.351562 0.90625 -0.625 C 0.34375 -0.90625 -0.0078125 -1.304688 -0.15625 -1.828125 C -0.300781 -2.359375 -0.128906 -2.976562 0.359375 -3.6875 C 0.691406 -4.070312 1.085938 -4.410156 1.546875 -4.703125 C 1.710938 -4.804688 1.878906 -4.921875 2.046875 -5.046875 C 1.492188 -5.648438 0.96875 -6.265625 0.46875 -6.890625 C -0.03125 -7.523438 -0.351562 -8.09375 -0.5 -8.59375 C -0.644531 -9.164062 -0.546875 -9.703125 -0.203125 -10.203125 C 0.140625 -10.710938 0.734375 -11.007812 1.578125 -11.09375 C 1.992188 -11.132812 2.378906 -11.113281 2.734375 -11.03125 C 3.097656 -10.945312 3.4375 -10.769531 3.75 -10.5 C 3.8125 -10.4375 3.859375 -10.363281 3.890625 -10.28125 C 3.921875 -10.207031 3.90625 -10.109375 3.84375 -9.984375 C 3.738281 -9.796875 3.585938 -9.703125 3.390625 -9.703125 C 3.234375 -9.703125 3.085938 -9.71875 2.953125 -9.75 C 2.796875 -9.820312 2.65625 -9.882812 2.53125 -9.9375 C 2.445312 -9.988281 2.367188 -10.03125 2.296875 -10.0625 C 2.023438 -10.164062 1.816406 -10.148438 1.671875 -10.015625 C 1.523438 -9.890625 1.453125 -9.691406 1.453125 -9.421875 C 1.472656 -8.941406 1.671875 -8.425781 2.046875 -7.875 C 2.421875 -7.332031 2.789062 -6.832031 3.15625 -6.375 C 3.3125 -6.21875 3.4375 -6.0625 3.53125 -5.90625 C 3.632812 -5.800781 3.90625 -5.816406 4.34375 -5.953125 C 4.789062 -6.085938 5.601562 -6.460938 6.78125 -7.078125 C 7.96875 -7.703125 8.5625 -7.90625 8.5625 -7.6875 Z M 2.25 -1.359375 C 2.53125 -1.367188 2.710938 -1.515625 2.796875 -1.796875 C 2.878906 -2.085938 2.90625 -2.398438 2.875 -2.734375 C 2.851562 -3.078125 2.832031 -3.332031 2.8125 -3.5 C 2.78125 -3.601562 2.71875 -3.664062 2.625 -3.6875 C 2.53125 -3.71875 2.441406 -3.71875 2.359375 -3.6875 C 2.046875 -3.4375 1.816406 -3.125 1.671875 -2.75 C 1.523438 -2.375 1.535156 -2.046875 1.703125 -1.765625 C 1.765625 -1.660156 1.84375 -1.566406 1.9375 -1.484375 C 2.03125 -1.410156 2.132812 -1.367188 2.25 -1.359375 Z M 2.25 -1.359375 "/></g></g></g><g fill="#ffffff" fill-opacity="1"><g transform="translate(106.967788, 216.758784)"><g><path d="M 22.125 -6.875 C 22.207031 -7.039062 22.332031 -7.125 22.5 -7.125 C 22.675781 -7.132812 22.828125 -7.03125 22.953125 -6.8125 C 23.003906 -6.75 22.957031 -6.585938 22.8125 -6.328125 C 22.675781 -6.078125 22.492188 -5.789062 22.265625 -5.46875 C 22.046875 -5.144531 21.832031 -4.847656 21.625 -4.578125 C 21.414062 -4.304688 21.269531 -4.128906 21.1875 -4.046875 C 20.257812 -3.015625 19.320312 -2.253906 18.375 -1.765625 C 17.4375 -1.285156 16.414062 -1.179688 15.3125 -1.453125 C 14.21875 -1.734375 12.988281 -2.519531 11.625 -3.8125 C 11.425781 -4.03125 11.222656 -4.253906 11.015625 -4.484375 C 10.953125 -4.546875 10.898438 -4.609375 10.859375 -4.671875 C 10.628906 -4.921875 10.378906 -4.953125 10.109375 -4.765625 C 9.828125 -4.554688 9.539062 -4.347656 9.25 -4.140625 C 9 -3.953125 8.738281 -3.78125 8.46875 -3.625 C 7.59375 -3.019531 6.671875 -2.507812 5.703125 -2.09375 C 4.671875 -1.632812 3.585938 -1.457031 2.453125 -1.5625 C 0.671875 -1.769531 -0.25 -2.753906 -0.3125 -4.515625 C -0.332031 -5.753906 -0.0664062 -6.863281 0.484375 -7.84375 C 1.035156 -8.820312 1.800781 -9.546875 2.78125 -10.015625 C 3.769531 -10.484375 4.898438 -10.578125 6.171875 -10.296875 C 6.316406 -10.265625 6.503906 -10.222656 6.734375 -10.171875 C 6.878906 -10.117188 7.054688 -10.070312 7.265625 -10.03125 C 7.140625 -10.320312 7.023438 -10.582031 6.921875 -10.8125 C 6.734375 -11.1875 6.566406 -11.53125 6.421875 -11.84375 C 5.566406 -13.601562 4.867188 -15.613281 4.328125 -17.875 C 3.796875 -20.132812 3.535156 -22.453125 3.546875 -24.828125 C 3.554688 -27.203125 3.953125 -29.414062 4.734375 -31.46875 C 5.523438 -33.519531 6.832031 -35.207031 8.65625 -36.53125 C 9.8125 -37.3125 11.003906 -37.734375 12.234375 -37.796875 C 13.460938 -37.867188 14.625 -37.601562 15.71875 -37 C 16.820312 -36.394531 17.71875 -35.492188 18.40625 -34.296875 C 19.28125 -32.640625 19.820312 -30.894531 20.03125 -29.0625 C 20.40625 -26.09375 20.34375 -23.328125 19.84375 -20.765625 C 19.351562 -18.203125 18.476562 -15.773438 17.21875 -13.484375 C 15.957031 -11.203125 14.351562 -8.988281 12.40625 -6.84375 C 12.21875 -6.632812 12.117188 -6.46875 12.109375 -6.34375 C 12.097656 -6.21875 12.1875 -6.046875 12.375 -5.828125 C 12.769531 -5.304688 13.195312 -4.800781 13.65625 -4.3125 C 14.125 -3.820312 14.648438 -3.414062 15.234375 -3.09375 C 16.035156 -2.738281 16.894531 -2.726562 17.8125 -3.0625 C 18.738281 -3.40625 19.59375 -3.929688 20.375 -4.640625 C 21.164062 -5.359375 21.75 -6.101562 22.125 -6.875 Z M 8.296875 -5.640625 C 8.535156 -5.847656 8.550781 -6.082031 8.34375 -6.34375 C 8.21875 -6.488281 8.097656 -6.644531 7.984375 -6.8125 C 7.640625 -7.226562 7.25 -7.648438 6.8125 -8.078125 C 6.382812 -8.515625 5.9375 -8.847656 5.46875 -9.078125 C 5.007812 -9.304688 4.539062 -9.328125 4.0625 -9.140625 C 3.40625 -8.828125 2.863281 -8.273438 2.4375 -7.484375 C 2.019531 -6.703125 1.769531 -5.894531 1.6875 -5.0625 C 1.613281 -4.238281 1.773438 -3.609375 2.171875 -3.171875 C 2.566406 -2.742188 3.238281 -2.707031 4.1875 -3.0625 C 5.675781 -3.71875 7.046875 -4.578125 8.296875 -5.640625 Z M 11.421875 -8.703125 C 13.398438 -11.035156 14.878906 -13.332031 15.859375 -15.59375 C 16.847656 -17.863281 17.515625 -20.519531 17.859375 -23.5625 C 17.960938 -24.300781 18.007812 -25.269531 18 -26.46875 C 17.988281 -27.675781 17.878906 -28.9375 17.671875 -30.25 C 17.472656 -31.5625 17.101562 -32.753906 16.5625 -33.828125 C 16.03125 -34.898438 15.28125 -35.675781 14.3125 -36.15625 C 13.351562 -36.632812 12.117188 -36.632812 10.609375 -36.15625 C 8.960938 -35.1875 7.738281 -33.898438 6.9375 -32.296875 C 6.132812 -30.691406 5.675781 -28.90625 5.5625 -26.9375 C 5.457031 -24.976562 5.585938 -22.972656 5.953125 -20.921875 C 6.328125 -18.867188 6.84375 -16.925781 7.5 -15.09375 C 8.164062 -13.257812 8.878906 -11.660156 9.640625 -10.296875 C 9.722656 -10.117188 9.804688 -9.945312 9.890625 -9.78125 C 10.117188 -9.226562 10.453125 -8.726562 10.890625 -8.28125 C 10.953125 -8.332031 11.015625 -8.382812 11.078125 -8.4375 C 11.203125 -8.507812 11.316406 -8.597656 11.421875 -8.703125 Z M 11.421875 -8.703125 "/></g></g></g><g fill="#ffffff" fill-opacity="1"><g transform="translate(128.953489, 216.758784)"><g><path d="M 13.59375 -6.8125 C 13.800781 -6.9375 14.003906 -7.03125 14.203125 -7.09375 C 14.398438 -7.15625 14.523438 -7.148438 14.578125 -7.078125 C 14.640625 -7.003906 14.5625 -6.832031 14.34375 -6.5625 C 13.632812 -5.757812 12.785156 -5.019531 11.796875 -4.34375 C 10.816406 -3.675781 9.8125 -3.113281 8.78125 -2.65625 C 7.976562 -2.28125 7.125 -1.984375 6.21875 -1.765625 C 5.320312 -1.554688 4.429688 -1.507812 3.546875 -1.625 C 2.671875 -1.75 1.875 -2.144531 1.15625 -2.8125 C 0.0507812 -3.820312 -0.40625 -5.0625 -0.21875 -6.53125 C -0.0507812 -7.695312 0.398438 -8.6875 1.140625 -9.5 C 1.890625 -10.3125 2.832031 -10.863281 3.96875 -11.15625 C 4.925781 -11.363281 5.878906 -11.382812 6.828125 -11.21875 C 7.253906 -11.15625 7.648438 -11.007812 8.015625 -10.78125 C 8.335938 -10.53125 8.515625 -10.234375 8.546875 -9.890625 C 8.578125 -9.554688 8.445312 -9.234375 8.15625 -8.921875 C 7.5625 -8.390625 6.867188 -8.070312 6.078125 -7.96875 C 5.191406 -7.8125 4.300781 -7.71875 3.40625 -7.6875 C 2.976562 -7.6875 2.675781 -7.59375 2.5 -7.40625 C 2.320312 -7.226562 2.222656 -6.925781 2.203125 -6.5 C 2.054688 -5.320312 2.429688 -4.363281 3.328125 -3.625 C 3.878906 -3.175781 4.550781 -2.984375 5.34375 -3.046875 C 6.144531 -3.117188 6.988281 -3.335938 7.875 -3.703125 C 8.769531 -4.066406 9.644531 -4.488281 10.5 -4.96875 C 11.351562 -5.457031 12.125 -5.914062 12.8125 -6.34375 C 13.101562 -6.53125 13.363281 -6.6875 13.59375 -6.8125 Z M 3.796875 -9.3125 C 3.796875 -9.300781 3.78125 -9.296875 3.75 -9.296875 C 3.707031 -9.253906 3.65625 -9.207031 3.59375 -9.15625 C 3.539062 -9.101562 3.488281 -9.050781 3.4375 -9 C 3.382812 -8.945312 3.359375 -8.910156 3.359375 -8.890625 C 3.378906 -8.828125 3.546875 -8.8125 3.859375 -8.84375 C 4.179688 -8.875 4.535156 -8.929688 4.921875 -9.015625 C 5.304688 -9.097656 5.628906 -9.207031 5.890625 -9.34375 C 6.148438 -9.476562 6.226562 -9.640625 6.125 -9.828125 C 6.070312 -9.878906 6.007812 -9.925781 5.9375 -9.96875 C 5.875 -10.007812 5.796875 -10.039062 5.703125 -10.0625 C 5.328125 -10.0625 4.984375 -9.988281 4.671875 -9.84375 C 4.367188 -9.695312 4.078125 -9.519531 3.796875 -9.3125 Z M 3.796875 -9.3125 "/></g></g></g><g fill="#ffffff" fill-opacity="1"><g transform="translate(142.595898, 216.758784)"><g/></g></g><g fill="#ffffff" fill-opacity="1"><g transform="translate(149.755344, 216.758784)"><g><path d="M 17.265625 -5.203125 C 17.265625 -5.203125 17.265625 -5.210938 17.265625 -5.234375 C 17.347656 -5.316406 17.550781 -5.5 17.875 -5.78125 C 18.195312 -6.070312 18.535156 -6.347656 18.890625 -6.609375 C 19.242188 -6.867188 19.492188 -7.003906 19.640625 -7.015625 C 19.796875 -7.023438 19.765625 -6.789062 19.546875 -6.3125 C 19.503906 -6.25 19.445312 -6.171875 19.375 -6.078125 C 19.300781 -5.992188 19.234375 -5.910156 19.171875 -5.828125 C 19.140625 -5.804688 19.117188 -5.78125 19.109375 -5.75 C 17.660156 -4.195312 16.523438 -3.125 15.703125 -2.53125 C 14.890625 -1.9375 14.082031 -1.65625 13.28125 -1.6875 C 12.457031 -1.769531 11.898438 -2.09375 11.609375 -2.65625 C 11.316406 -3.21875 11.171875 -3.898438 11.171875 -4.703125 C 11.179688 -5.503906 11.25 -6.316406 11.375 -7.140625 C 11.507812 -8.003906 11.5625 -8.738281 11.53125 -9.34375 C 11.507812 -9.945312 11.300781 -10.300781 10.90625 -10.40625 C 10.539062 -10.4375 10.164062 -10.132812 9.78125 -9.5 C 9.394531 -8.863281 9.023438 -8.125 8.671875 -7.28125 C 8.328125 -6.445312 8.039062 -5.710938 7.8125 -5.078125 C 7.6875 -4.722656 7.597656 -4.472656 7.546875 -4.328125 C 7.378906 -3.992188 7.140625 -3.773438 6.828125 -3.671875 C 6.515625 -3.578125 6.1875 -3.597656 5.84375 -3.734375 C 5.632812 -3.867188 5.503906 -4.046875 5.453125 -4.265625 C 5.398438 -4.765625 5.382812 -5.285156 5.40625 -5.828125 C 5.414062 -6.171875 5.414062 -6.507812 5.40625 -6.84375 C 5.40625 -6.925781 5.40625 -7.023438 5.40625 -7.140625 C 5.40625 -7.316406 5.40625 -7.484375 5.40625 -7.640625 C 5.40625 -7.804688 5.382812 -7.953125 5.34375 -8.078125 C 5.3125 -8.210938 5.242188 -8.28125 5.140625 -8.28125 C 4.984375 -8.289062 4.789062 -8.09375 4.5625 -7.6875 C 4.332031 -7.289062 4.097656 -6.8125 3.859375 -6.25 C 3.628906 -5.695312 3.421875 -5.191406 3.234375 -4.734375 C 3.054688 -4.335938 2.941406 -4.070312 2.890625 -3.9375 C 2.859375 -3.863281 2.828125 -3.796875 2.796875 -3.734375 C 2.609375 -3.367188 2.421875 -3 2.234375 -2.625 C 2.066406 -2.3125 1.796875 -2.128906 1.421875 -2.078125 C 0.660156 -1.941406 0.25 -2.25 0.1875 -3 C 0.125 -4.914062 0.0703125 -6.835938 0.03125 -8.765625 C 0.03125 -9.265625 0.335938 -9.441406 0.953125 -9.296875 C 1.578125 -9.148438 1.921875 -8.828125 1.984375 -8.328125 C 2.046875 -7.523438 2.140625 -7.117188 2.265625 -7.109375 C 2.390625 -7.097656 2.648438 -7.453125 3.046875 -8.171875 C 3.253906 -8.523438 3.46875 -8.878906 3.6875 -9.234375 C 3.957031 -9.703125 4.320312 -10.113281 4.78125 -10.46875 C 5.25 -10.78125 5.703125 -10.875 6.140625 -10.75 C 6.578125 -10.625 6.914062 -10.289062 7.15625 -9.75 C 7.257812 -9.53125 7.363281 -9.410156 7.46875 -9.390625 C 7.570312 -9.367188 7.675781 -9.414062 7.78125 -9.53125 C 7.882812 -9.644531 7.988281 -9.78125 8.09375 -9.9375 C 8.175781 -10.101562 8.269531 -10.25 8.375 -10.375 C 8.957031 -11.007812 9.648438 -11.453125 10.453125 -11.703125 C 11.253906 -11.953125 11.984375 -11.941406 12.640625 -11.671875 C 13.296875 -11.410156 13.675781 -10.820312 13.78125 -9.90625 C 13.8125 -8.820312 13.734375 -7.707031 13.546875 -6.5625 C 13.472656 -6.019531 13.410156 -5.503906 13.359375 -5.015625 C 13.328125 -3.953125 13.519531 -3.367188 13.9375 -3.265625 C 14.363281 -3.160156 14.878906 -3.328125 15.484375 -3.765625 C 16.097656 -4.203125 16.691406 -4.679688 17.265625 -5.203125 Z M 17.265625 -5.203125 "/></g></g></g><g fill="#ffffff" fill-opacity="1"><g transform="translate(168.231794, 216.758784)"><g><path d="M 7.3125 -5.71875 C 7.019531 -5.125 6.523438 -4.457031 5.828125 -3.71875 C 5.128906 -2.988281 4.332031 -2.523438 3.4375 -2.328125 C 2.550781 -2.128906 1.707031 -2.4375 0.90625 -3.25 C 0.59375 -3.601562 0.363281 -4.007812 0.21875 -4.46875 C 0.0703125 -4.9375 0.0195312 -5.394531 0.0625 -5.84375 C 0.0625 -5.96875 0.0625 -6.125 0.0625 -6.3125 C 0.0625 -6.789062 0.0820312 -7.34375 0.125 -7.96875 C 0.164062 -8.601562 0.257812 -9.175781 0.40625 -9.6875 C 0.550781 -10.195312 0.773438 -10.503906 1.078125 -10.609375 C 1.972656 -10.828125 2.457031 -10.515625 2.53125 -9.671875 C 2.53125 -9.398438 2.523438 -9.128906 2.515625 -8.859375 C 2.492188 -8.710938 2.484375 -8.578125 2.484375 -8.453125 C 2.460938 -8.066406 2.441406 -7.675781 2.421875 -7.28125 C 2.421875 -6.96875 2.40625 -6.65625 2.375 -6.34375 C 2.363281 -4.976562 2.671875 -4.164062 3.296875 -3.90625 C 3.929688 -3.65625 4.648438 -3.929688 5.453125 -4.734375 C 6.265625 -5.546875 6.796875 -6.21875 7.046875 -6.75 C 7.296875 -7.289062 7.472656 -7.40625 7.578125 -7.09375 C 7.691406 -6.78125 7.601562 -6.320312 7.3125 -5.71875 Z M 2.359375 -13.5 C 2.234375 -13.40625 2.082031 -13.34375 1.90625 -13.3125 C 1.738281 -13.28125 1.585938 -13.296875 1.453125 -13.359375 C 1.347656 -13.441406 1.28125 -13.550781 1.25 -13.6875 C 1.226562 -13.820312 1.21875 -13.984375 1.21875 -14.171875 C 1.21875 -14.203125 1.222656 -14.238281 1.234375 -14.28125 C 1.253906 -14.445312 1.300781 -14.617188 1.375 -14.796875 C 1.5625 -15.242188 1.945312 -15.445312 2.53125 -15.40625 C 2.738281 -15.382812 2.898438 -15.300781 3.015625 -15.15625 C 3.140625 -15.007812 3.171875 -14.84375 3.109375 -14.65625 C 2.960938 -14.195312 2.710938 -13.8125 2.359375 -13.5 Z M 2.359375 -13.5 "/></g></g></g><g fill="#ffffff" fill-opacity="1"><g transform="translate(99.127945, 269.25878)"><g><path d="M 14.578125 -7.09375 C 14.785156 -7.070312 14.75 -6.785156 14.46875 -6.234375 C 14.195312 -5.691406 13.742188 -5.0625 13.109375 -4.34375 C 12.472656 -3.625 11.757812 -3.003906 10.96875 -2.484375 C 10.1875 -1.972656 9.40625 -1.742188 8.625 -1.796875 C 8.039062 -1.847656 7.609375 -2.019531 7.328125 -2.3125 C 7.054688 -2.601562 6.867188 -2.925781 6.765625 -3.28125 C 6.660156 -3.632812 6.59375 -3.941406 6.5625 -4.203125 C 6.550781 -4.390625 6.53125 -4.53125 6.5 -4.625 C 6.46875 -4.71875 6.410156 -4.722656 6.328125 -4.640625 C 5.722656 -3.253906 4.679688 -2.5625 3.203125 -2.5625 C 2.367188 -2.5625 1.691406 -2.925781 1.171875 -3.65625 C 0.660156 -4.394531 0.335938 -5.316406 0.203125 -6.421875 C 0.0664062 -7.523438 0.171875 -8.644531 0.515625 -9.78125 C 0.609375 -10.15625 0.84375 -10.414062 1.21875 -10.5625 C 1.476562 -10.664062 1.75 -10.65625 2.03125 -10.53125 C 2.3125 -10.40625 2.460938 -10.222656 2.484375 -9.984375 C 2.484375 -9.722656 2.460938 -9.472656 2.421875 -9.234375 C 2.378906 -9.046875 2.347656 -8.867188 2.328125 -8.703125 C 2.285156 -8.023438 2.296875 -7.28125 2.359375 -6.46875 C 2.421875 -5.664062 2.632812 -4.976562 3 -4.40625 C 3.351562 -3.9375 3.75 -3.875 4.1875 -4.21875 C 4.625 -4.5625 5.003906 -5.097656 5.328125 -5.828125 C 5.578125 -6.398438 5.773438 -6.96875 5.921875 -7.53125 C 6.066406 -8.101562 6.160156 -8.546875 6.203125 -8.859375 C 6.242188 -8.984375 6.265625 -9.066406 6.265625 -9.109375 C 6.328125 -9.347656 6.390625 -9.585938 6.453125 -9.828125 C 6.554688 -10.171875 6.660156 -10.507812 6.765625 -10.84375 C 6.941406 -11.476562 7.394531 -11.742188 8.125 -11.640625 C 8.5625 -11.609375 8.800781 -11.394531 8.84375 -11 C 8.875 -10.457031 8.882812 -9.921875 8.875 -9.390625 C 8.851562 -8.828125 8.820312 -8.273438 8.78125 -7.734375 C 8.738281 -6.953125 8.707031 -6.179688 8.6875 -5.421875 C 8.664062 -4.296875 8.882812 -3.640625 9.34375 -3.453125 C 9.8125 -3.273438 10.378906 -3.394531 11.046875 -3.8125 C 11.722656 -4.238281 12.375 -4.816406 13 -5.546875 C 13.050781 -5.609375 13.117188 -5.691406 13.203125 -5.796875 C 13.328125 -5.953125 13.476562 -6.128906 13.65625 -6.328125 C 13.84375 -6.523438 14.015625 -6.695312 14.171875 -6.84375 C 14.335938 -6.988281 14.472656 -7.070312 14.578125 -7.09375 Z M 14.578125 -7.09375 "/></g></g></g><g fill="#ffffff" fill-opacity="1"><g transform="translate(112.869014, 269.25878)"><g><path d="M 11.65625 -5.421875 C 12.382812 -6.566406 12.816406 -7.296875 12.953125 -7.609375 C 13.085938 -7.921875 13.191406 -7.90625 13.265625 -7.5625 C 13.347656 -7.226562 13.117188 -6.46875 12.578125 -5.28125 C 12.035156 -4.09375 11.359375 -3.175781 10.546875 -2.53125 C 9.734375 -1.882812 8.976562 -1.644531 8.28125 -1.8125 C 7.582031 -1.988281 7.082031 -2.476562 6.78125 -3.28125 C 6.476562 -4.082031 6.390625 -5.09375 6.515625 -6.3125 C 6.515625 -6.332031 6.523438 -6.382812 6.546875 -6.46875 C 6.554688 -6.675781 6.585938 -6.984375 6.640625 -7.390625 C 6.691406 -7.796875 6.726562 -8.210938 6.75 -8.640625 C 6.78125 -9.078125 6.769531 -9.4375 6.71875 -9.71875 C 6.664062 -10 6.535156 -10.097656 6.328125 -10.015625 C 5.828125 -9.734375 5.335938 -9.195312 4.859375 -8.40625 C 4.390625 -7.613281 3.960938 -6.78125 3.578125 -5.90625 C 3.191406 -5.039062 2.921875 -4.34375 2.765625 -3.8125 C 2.703125 -3.632812 2.640625 -3.453125 2.578125 -3.265625 C 2.492188 -3.023438 2.398438 -2.78125 2.296875 -2.53125 C 2.023438 -1.832031 1.550781 -1.5625 0.875 -1.71875 C 0.5 -1.800781 0.28125 -2.03125 0.21875 -2.40625 C 0.195312 -2.695312 0.1875 -2.976562 0.1875 -3.25 C 0.1875 -3.414062 0.175781 -3.566406 0.15625 -3.703125 C 0.113281 -5.796875 0.0625 -7.898438 0 -10.015625 C 0.0195312 -10.253906 0.128906 -10.421875 0.328125 -10.515625 C 0.523438 -10.609375 0.757812 -10.65625 1.03125 -10.65625 C 1.238281 -10.65625 1.429688 -10.597656 1.609375 -10.484375 C 1.796875 -10.378906 1.910156 -10.144531 1.953125 -9.78125 C 1.972656 -9.65625 1.984375 -9.535156 1.984375 -9.421875 C 2.003906 -9.347656 2.015625 -9.285156 2.015625 -9.234375 C 2.054688 -8.941406 2.078125 -8.691406 2.078125 -8.484375 C 2.078125 -8.171875 2.097656 -7.957031 2.140625 -7.84375 C 2.179688 -7.738281 2.269531 -7.742188 2.40625 -7.859375 C 2.539062 -7.984375 2.765625 -8.273438 3.078125 -8.734375 C 3.609375 -9.566406 4.269531 -10.269531 5.0625 -10.84375 C 5.78125 -11.363281 6.570312 -11.578125 7.4375 -11.484375 C 8.1875 -11.410156 8.6875 -11.023438 8.9375 -10.328125 C 9.039062 -9.960938 9.09375 -9.597656 9.09375 -9.234375 C 9.09375 -8.878906 9.070312 -8.519531 9.03125 -8.15625 C 9.007812 -7.769531 8.976562 -7.382812 8.9375 -7 C 8.90625 -6.875 8.882812 -6.75 8.875 -6.625 C 8.75 -5.28125 8.789062 -4.378906 9 -3.921875 C 9.207031 -3.472656 9.519531 -3.320312 9.9375 -3.46875 C 10.363281 -3.625 10.9375 -4.273438 11.65625 -5.421875 Z M 11.65625 -5.421875 "/></g></g></g><g fill="#ffffff" fill-opacity="1"><g transform="translate(125.271204, 269.25878)"><g><path d="M 7.3125 -5.71875 C 7.019531 -5.125 6.523438 -4.457031 5.828125 -3.71875 C 5.128906 -2.988281 4.332031 -2.523438 3.4375 -2.328125 C 2.550781 -2.128906 1.707031 -2.4375 0.90625 -3.25 C 0.59375 -3.601562 0.363281 -4.007812 0.21875 -4.46875 C 0.0703125 -4.9375 0.0195312 -5.394531 0.0625 -5.84375 C 0.0625 -5.96875 0.0625 -6.125 0.0625 -6.3125 C 0.0625 -6.789062 0.0820312 -7.34375 0.125 -7.96875 C 0.164062 -8.601562 0.257812 -9.175781 0.40625 -9.6875 C 0.550781 -10.195312 0.773438 -10.503906 1.078125 -10.609375 C 1.972656 -10.828125 2.457031 -10.515625 2.53125 -9.671875 C 2.53125 -9.398438 2.523438 -9.128906 2.515625 -8.859375 C 2.492188 -8.710938 2.484375 -8.578125 2.484375 -8.453125 C 2.460938 -8.066406 2.441406 -7.675781 2.421875 -7.28125 C 2.421875 -6.96875 2.40625 -6.65625 2.375 -6.34375 C 2.363281 -4.976562 2.671875 -4.164062 3.296875 -3.90625 C 3.929688 -3.65625 4.648438 -3.929688 5.453125 -4.734375 C 6.265625 -5.546875 6.796875 -6.21875 7.046875 -6.75 C 7.296875 -7.289062 7.472656 -7.40625 7.578125 -7.09375 C 7.691406 -6.78125 7.601562 -6.320312 7.3125 -5.71875 Z M 2.359375 -13.5 C 2.234375 -13.40625 2.082031 -13.34375 1.90625 -13.3125 C 1.738281 -13.28125 1.585938 -13.296875 1.453125 -13.359375 C 1.347656 -13.441406 1.28125 -13.550781 1.25 -13.6875 C 1.226562 -13.820312 1.21875 -13.984375 1.21875 -14.171875 C 1.21875 -14.203125 1.222656 -14.238281 1.234375 -14.28125 C 1.253906 -14.445312 1.300781 -14.617188 1.375 -14.796875 C 1.5625 -15.242188 1.945312 -15.445312 2.53125 -15.40625 C 2.738281 -15.382812 2.898438 -15.300781 3.015625 -15.15625 C 3.140625 -15.007812 3.171875 -14.84375 3.109375 -14.65625 C 2.960938 -14.195312 2.710938 -13.8125 2.359375 -13.5 Z M 2.359375 -13.5 "/></g></g></g><g fill="#ffffff" fill-opacity="1"><g transform="translate(132.191068, 269.25878)"><g><path d="M 10.421875 -7.375 C 11.128906 -7.5625 11.410156 -7.550781 11.265625 -7.34375 C 11.128906 -7.132812 10.671875 -6.925781 9.890625 -6.71875 C 9.316406 -6.570312 8.816406 -6.5 8.390625 -6.5 C 7.960938 -6.5 7.578125 -6.632812 7.234375 -6.90625 C 7.148438 -6.613281 7.066406 -6.332031 6.984375 -6.0625 C 6.804688 -5.507812 6.640625 -4.984375 6.484375 -4.484375 C 6.273438 -3.753906 5.972656 -3.070312 5.578125 -2.4375 C 5.253906 -1.90625 4.820312 -1.546875 4.28125 -1.359375 C 3.738281 -1.171875 3.207031 -1.171875 2.6875 -1.359375 C 2.175781 -1.554688 1.753906 -1.957031 1.421875 -2.5625 C 1.003906 -3.425781 0.726562 -4.332031 0.59375 -5.28125 C 0.28125 -6.695312 0.09375 -8.128906 0.03125 -9.578125 C 0.0078125 -9.898438 0.0195312 -10.21875 0.0625 -10.53125 C 0.125 -10.945312 0.378906 -11.15625 0.828125 -11.15625 C 1.171875 -11.132812 1.375 -10.929688 1.4375 -10.546875 C 1.507812 -10.171875 1.546875 -9.785156 1.546875 -9.390625 C 1.546875 -9.242188 1.554688 -9.117188 1.578125 -9.015625 C 1.578125 -8.867188 1.625 -8.398438 1.71875 -7.609375 C 1.8125 -6.816406 1.953125 -5.96875 2.140625 -5.0625 C 2.328125 -4.15625 2.554688 -3.460938 2.828125 -2.984375 C 3.097656 -2.515625 3.414062 -2.53125 3.78125 -3.03125 C 4.132812 -3.5625 4.382812 -4.140625 4.53125 -4.765625 C 4.882812 -6.003906 5.21875 -7.242188 5.53125 -8.484375 C 5.644531 -9.066406 5.878906 -9.59375 6.234375 -10.0625 C 6.609375 -10.519531 7.097656 -10.632812 7.703125 -10.40625 C 7.835938 -10.363281 7.945312 -10.289062 8.03125 -10.1875 C 8.113281 -10.082031 8.144531 -9.972656 8.125 -9.859375 C 8.101562 -9.703125 8.070312 -9.546875 8.03125 -9.390625 C 7.925781 -9.078125 7.847656 -8.765625 7.796875 -8.453125 C 7.742188 -8.148438 7.765625 -7.910156 7.859375 -7.734375 C 7.992188 -7.535156 8.328125 -7.394531 8.859375 -7.3125 C 9.398438 -7.226562 9.921875 -7.25 10.421875 -7.375 Z M 10.421875 -7.375 "/></g></g></g><g fill="#ffffff" fill-opacity="1"><g transform="translate(142.634281, 269.25878)"><g><path d="M 13.59375 -6.8125 C 13.800781 -6.9375 14.003906 -7.03125 14.203125 -7.09375 C 14.398438 -7.15625 14.523438 -7.148438 14.578125 -7.078125 C 14.640625 -7.003906 14.5625 -6.832031 14.34375 -6.5625 C 13.632812 -5.757812 12.785156 -5.019531 11.796875 -4.34375 C 10.816406 -3.675781 9.8125 -3.113281 8.78125 -2.65625 C 7.976562 -2.28125 7.125 -1.984375 6.21875 -1.765625 C 5.320312 -1.554688 4.429688 -1.507812 3.546875 -1.625 C 2.671875 -1.75 1.875 -2.144531 1.15625 -2.8125 C 0.0507812 -3.820312 -0.40625 -5.0625 -0.21875 -6.53125 C -0.0507812 -7.695312 0.398438 -8.6875 1.140625 -9.5 C 1.890625 -10.3125 2.832031 -10.863281 3.96875 -11.15625 C 4.925781 -11.363281 5.878906 -11.382812 6.828125 -11.21875 C 7.253906 -11.15625 7.648438 -11.007812 8.015625 -10.78125 C 8.335938 -10.53125 8.515625 -10.234375 8.546875 -9.890625 C 8.578125 -9.554688 8.445312 -9.234375 8.15625 -8.921875 C 7.5625 -8.390625 6.867188 -8.070312 6.078125 -7.96875 C 5.191406 -7.8125 4.300781 -7.71875 3.40625 -7.6875 C 2.976562 -7.6875 2.675781 -7.59375 2.5 -7.40625 C 2.320312 -7.226562 2.222656 -6.925781 2.203125 -6.5 C 2.054688 -5.320312 2.429688 -4.363281 3.328125 -3.625 C 3.878906 -3.175781 4.550781 -2.984375 5.34375 -3.046875 C 6.144531 -3.117188 6.988281 -3.335938 7.875 -3.703125 C 8.769531 -4.066406 9.644531 -4.488281 10.5 -4.96875 C 11.351562 -5.457031 12.125 -5.914062 12.8125 -6.34375 C 13.101562 -6.53125 13.363281 -6.6875 13.59375 -6.8125 Z M 3.796875 -9.3125 C 3.796875 -9.300781 3.78125 -9.296875 3.75 -9.296875 C 3.707031 -9.253906 3.65625 -9.207031 3.59375 -9.15625 C 3.539062 -9.101562 3.488281 -9.050781 3.4375 -9 C 3.382812 -8.945312 3.359375 -8.910156 3.359375 -8.890625 C 3.378906 -8.828125 3.546875 -8.8125 3.859375 -8.84375 C 4.179688 -8.875 4.535156 -8.929688 4.921875 -9.015625 C 5.304688 -9.097656 5.628906 -9.207031 5.890625 -9.34375 C 6.148438 -9.476562 6.226562 -9.640625 6.125 -9.828125 C 6.070312 -9.878906 6.007812 -9.925781 5.9375 -9.96875 C 5.875 -10.007812 5.796875 -10.039062 5.703125 -10.0625 C 5.328125 -10.0625 4.984375 -9.988281 4.671875 -9.84375 C 4.367188 -9.695312 4.078125 -9.519531 3.796875 -9.3125 Z M 3.796875 -9.3125 "/></g></g></g><g fill="#ffffff" fill-opacity="1"><g transform="translate(156.27669, 269.25878)"><g><path d="M 9 -6.75 C 9.175781 -7.113281 9.296875 -7.28125 9.359375 -7.25 C 9.421875 -7.226562 9.4375 -7.082031 9.40625 -6.8125 C 9.375 -6.550781 9.316406 -6.25 9.234375 -5.90625 C 9.109375 -5.382812 8.894531 -4.785156 8.59375 -4.109375 C 8.300781 -3.429688 7.96875 -2.8125 7.59375 -2.25 C 7.050781 -1.476562 6.378906 -0.894531 5.578125 -0.5 C 4.773438 -0.113281 4.046875 -0.0195312 3.390625 -0.21875 C 2.734375 -0.414062 2.351562 -1.035156 2.25 -2.078125 C 2.238281 -2.941406 2.316406 -3.890625 2.484375 -4.921875 C 2.535156 -5.347656 2.597656 -5.769531 2.671875 -6.1875 C 2.671875 -6.34375 2.628906 -6.457031 2.546875 -6.53125 C 2.472656 -6.613281 2.375 -6.644531 2.25 -6.625 C 2.164062 -6.625 2.070312 -6.625 1.96875 -6.625 C 1.457031 -6.539062 0.929688 -6.550781 0.390625 -6.65625 C -0.242188 -6.84375 -0.613281 -7.160156 -0.71875 -7.609375 C -0.820312 -8.054688 -0.8125 -8.640625 -0.6875 -9.359375 C -0.625 -9.878906 -0.429688 -10.265625 -0.109375 -10.515625 C 0.203125 -10.773438 0.578125 -10.882812 1.015625 -10.84375 C 1.617188 -10.78125 1.910156 -10.546875 1.890625 -10.140625 C 1.867188 -9.742188 1.753906 -9.316406 1.546875 -8.859375 C 1.359375 -8.472656 1.257812 -8.148438 1.25 -7.890625 C 1.238281 -7.628906 1.460938 -7.535156 1.921875 -7.609375 C 2.023438 -7.640625 2.132812 -7.675781 2.25 -7.71875 C 2.425781 -7.78125 2.617188 -7.835938 2.828125 -7.890625 C 3.046875 -7.941406 3.332031 -7.953125 3.6875 -7.921875 C 4.09375 -7.898438 4.363281 -7.707031 4.5 -7.34375 C 4.632812 -6.988281 4.691406 -6.535156 4.671875 -5.984375 C 4.660156 -5.441406 4.613281 -4.890625 4.53125 -4.328125 C 4.425781 -3.617188 4.375 -3.015625 4.375 -2.515625 C 4.375 -2.015625 4.519531 -1.722656 4.8125 -1.640625 C 5.195312 -1.535156 5.769531 -1.882812 6.53125 -2.6875 C 7.300781 -3.488281 8.125 -4.84375 9 -6.75 Z M 9 -6.75 "/></g></g></g><g fill="#ffffff" fill-opacity="1"><g transform="translate(164.90185, 269.25878)"><g><path d="M 8.5625 -7.6875 C 8.5625 -7.476562 8.101562 -7.097656 7.1875 -6.546875 C 6.28125 -5.992188 5.609375 -5.578125 5.171875 -5.296875 C 4.742188 -5.023438 4.53125 -4.859375 4.53125 -4.796875 C 4.613281 -4.609375 4.703125 -4.289062 4.796875 -3.84375 C 4.890625 -3.40625 4.921875 -2.925781 4.890625 -2.40625 C 4.867188 -1.894531 4.703125 -1.4375 4.390625 -1.03125 C 4.085938 -0.625 3.570312 -0.378906 2.84375 -0.296875 C 2.125 -0.242188 1.476562 -0.351562 0.90625 -0.625 C 0.34375 -0.90625 -0.0078125 -1.304688 -0.15625 -1.828125 C -0.300781 -2.359375 -0.128906 -2.976562 0.359375 -3.6875 C 0.691406 -4.070312 1.085938 -4.410156 1.546875 -4.703125 C 1.710938 -4.804688 1.878906 -4.921875 2.046875 -5.046875 C 1.492188 -5.648438 0.96875 -6.265625 0.46875 -6.890625 C -0.03125 -7.523438 -0.351562 -8.09375 -0.5 -8.59375 C -0.644531 -9.164062 -0.546875 -9.703125 -0.203125 -10.203125 C 0.140625 -10.710938 0.734375 -11.007812 1.578125 -11.09375 C 1.992188 -11.132812 2.378906 -11.113281 2.734375 -11.03125 C 3.097656 -10.945312 3.4375 -10.769531 3.75 -10.5 C 3.8125 -10.4375 3.859375 -10.363281 3.890625 -10.28125 C 3.921875 -10.207031 3.90625 -10.109375 3.84375 -9.984375 C 3.738281 -9.796875 3.585938 -9.703125 3.390625 -9.703125 C 3.234375 -9.703125 3.085938 -9.71875 2.953125 -9.75 C 2.796875 -9.820312 2.65625 -9.882812 2.53125 -9.9375 C 2.445312 -9.988281 2.367188 -10.03125 2.296875 -10.0625 C 2.023438 -10.164062 1.816406 -10.148438 1.671875 -10.015625 C 1.523438 -9.890625 1.453125 -9.691406 1.453125 -9.421875 C 1.472656 -8.941406 1.671875 -8.425781 2.046875 -7.875 C 2.421875 -7.332031 2.789062 -6.832031 3.15625 -6.375 C 3.3125 -6.21875 3.4375 -6.0625 3.53125 -5.90625 C 3.632812 -5.800781 3.90625 -5.816406 4.34375 -5.953125 C 4.789062 -6.085938 5.601562 -6.460938 6.78125 -7.078125 C 7.96875 -7.703125 8.5625 -7.90625 8.5625 -7.6875 Z M 2.25 -1.359375 C 2.53125 -1.367188 2.710938 -1.515625 2.796875 -1.796875 C 2.878906 -2.085938 2.90625 -2.398438 2.875 -2.734375 C 2.851562 -3.078125 2.832031 -3.332031 2.8125 -3.5 C 2.78125 -3.601562 2.71875 -3.664062 2.625 -3.6875 C 2.53125 -3.71875 2.441406 -3.71875 2.359375 -3.6875 C 2.046875 -3.4375 1.816406 -3.125 1.671875 -2.75 C 1.523438 -2.375 1.535156 -2.046875 1.703125 -1.765625 C 1.765625 -1.660156 1.84375 -1.566406 1.9375 -1.484375 C 2.03125 -1.410156 2.132812 -1.367188 2.25 -1.359375 Z M 2.25 -1.359375 "/></g></g></g><g fill="#ffffff" fill-opacity="1"><g transform="translate(172.498197, 269.25878)"><g><path d="M 10.828125 -7.71875 C 10.972656 -7.851562 11.046875 -7.675781 11.046875 -7.1875 C 11.054688 -6.707031 10.617188 -6.03125 9.734375 -5.15625 C 8.847656 -4.289062 7.929688 -3.882812 6.984375 -3.9375 C 6.773438 -3.957031 6.597656 -3.941406 6.453125 -3.890625 C 6.304688 -3.835938 6.179688 -3.71875 6.078125 -3.53125 C 5.972656 -3.351562 5.847656 -3.195312 5.703125 -3.0625 C 5.703125 -3.0625 5.695312 -3.050781 5.6875 -3.03125 C 5.101562 -2.40625 4.414062 -1.992188 3.625 -1.796875 C 2.84375 -1.609375 2.097656 -1.671875 1.390625 -1.984375 C 0.691406 -2.304688 0.1875 -2.914062 -0.125 -3.8125 C -0.351562 -4.613281 -0.375 -5.414062 -0.1875 -6.21875 C -0.0195312 -6.925781 0.238281 -7.585938 0.59375 -8.203125 C 1.019531 -9.035156 1.578125 -9.617188 2.265625 -9.953125 C 2.960938 -10.296875 3.75 -10.488281 4.625 -10.53125 C 5.914062 -10.59375 6.734375 -9.984375 7.078125 -8.703125 C 7.285156 -7.953125 7.335938 -7.195312 7.234375 -6.4375 C 7.203125 -6.269531 7.171875 -6.09375 7.140625 -5.90625 C 7.097656 -5.78125 7.0625 -5.660156 7.03125 -5.546875 C 7 -5.128906 7.179688 -4.941406 7.578125 -4.984375 C 8.660156 -5.171875 9.742188 -6.082031 10.828125 -7.71875 Z M 3.15625 -2.90625 C 3.820312 -3.21875 4.285156 -3.742188 4.546875 -4.484375 C 3.441406 -5.191406 2.703125 -6.207031 2.328125 -7.53125 C 1.984375 -6.90625 1.769531 -6.175781 1.6875 -5.34375 C 1.613281 -4.519531 1.695312 -3.835938 1.9375 -3.296875 C 2.175781 -2.765625 2.582031 -2.632812 3.15625 -2.90625 Z M 5.0625 -5.953125 C 5.238281 -6.210938 5.34375 -6.535156 5.375 -6.921875 C 5.40625 -7.304688 5.382812 -7.6875 5.3125 -8.0625 C 5.25 -8.445312 5.15625 -8.75 5.03125 -8.96875 C 4.90625 -9.1875 4.769531 -9.253906 4.625 -9.171875 C 4.375 -8.941406 4.234375 -8.613281 4.203125 -8.1875 C 4.171875 -7.769531 4.234375 -7.347656 4.390625 -6.921875 C 4.546875 -6.492188 4.769531 -6.171875 5.0625 -5.953125 Z M 5.0625 -5.953125 "/></g></g></g></svg>